<svg width="128" height="128" viewBox="0 0 128 128" fill="none" xmlns="http://www.w3.org/2000/svg">
<path d="M23.3866 41.5985C23.1139 41.5985 22.8275 41.503 22.5274 41.3121C22.241 41.1212 21.9818 40.9098 21.75 40.6779C21.5182 40.4597 21.3136 40.2142 21.1363 39.9415C20.9726 39.6823 20.8908 39.4573 20.8908 39.2663V33.4154H23.6526V35.2771H30.0763V33.4154H32.8381V40.1051C32.8381 40.5824 32.7153 40.9507 32.4699 41.2098C32.238 41.469 31.8698 41.5985 31.3651 41.5985H23.3866ZM24.9005 22.9206H27.6214V30.3263C27.6214 30.8036 27.4986 31.1855 27.2531 31.4719C27.0213 31.7447 26.6599 31.8811 26.1689 31.8811H20.8498C20.5771 31.8811 20.2907 31.7856 19.9906 31.5947C19.7042 31.4038 19.4451 31.1923 19.2132 30.9605C18.9814 30.7423 18.7768 30.5036 18.5995 30.2445C18.4358 29.9717 18.354 29.7398 18.354 29.5489V22.9206H21.0749V25.13H24.9005V22.9206ZM30.2809 22.7569H33.0631V26.0302H36.1523V28.3828H33.0631V31.7993C33.0631 32.0448 32.9404 32.2152 32.6949 32.3107C32.4494 32.3925 32.1084 32.4335 31.672 32.4335C31.2356 32.4335 30.8946 32.3925 30.6491 32.3107C30.4036 32.2152 30.2809 32.0448 30.2809 31.7993V22.7569ZM30.0763 39.2868V37.5479H23.6526V38.9799C23.6526 39.1845 23.7412 39.2868 23.9185 39.2868H30.0763ZM21.0749 29.283C21.0749 29.4875 21.1635 29.5898 21.3408 29.5898H24.9005V27.4213H21.0749V29.283ZM36.9642 34.2337V32.0038H53.9032C54.176 32.0038 54.3464 32.0925 54.4147 32.2698C54.4965 32.4471 54.5374 32.7335 54.5374 33.129C54.5374 33.5245 54.4965 33.8109 54.4147 33.9882C54.3464 34.1519 54.176 34.2337 53.9032 34.2337H36.9642ZM41.7104 41.394C41.4785 41.394 41.2262 41.3053 40.9535 41.128C40.6806 40.9507 40.4352 40.7461 40.217 40.5143C40.0124 40.3097 39.8283 40.0847 39.6646 39.8392C39.501 39.5937 39.4191 39.3754 39.4191 39.1845V35.5635H42.2014V38.5503C42.2014 38.9049 42.3582 39.0822 42.6719 39.0822H51.5506C51.7824 39.0822 51.9256 39.1845 51.9802 39.3891C52.0484 39.6073 52.0825 39.8937 52.0825 40.2483C52.0825 40.6302 52.0484 40.9166 51.9802 41.1075C51.9256 41.2985 51.7824 41.394 51.5506 41.394H41.7104ZM48.1341 26.5007C48.1341 26.2416 48.0796 25.9756 47.9705 25.7029C47.8613 25.4301 47.6977 25.1846 47.4795 24.9664C47.2749 24.7482 47.0158 24.5709 46.7021 24.4345C46.3884 24.2981 46.027 24.2299 45.6178 24.2299C45.2223 24.2299 44.8677 24.2981 44.554 24.4345C44.254 24.5709 43.9948 24.7482 43.7766 24.9664C43.5721 25.1846 43.4152 25.4301 43.3061 25.7029C43.197 25.9756 43.1424 26.2416 43.1424 26.5007C43.1424 26.7735 43.197 27.0462 43.3061 27.319C43.4152 27.5782 43.5721 27.8168 43.7766 28.035C43.9948 28.2396 44.254 28.4101 44.554 28.5465C44.8677 28.6829 45.2223 28.7511 45.6178 28.7511C46.027 28.7511 46.3884 28.6829 46.7021 28.5465C47.0158 28.4101 47.2749 28.2396 47.4795 28.035C47.6977 27.8168 47.8613 27.5782 47.9705 27.319C48.0796 27.0462 48.1341 26.7735 48.1341 26.5007ZM50.8959 26.5007C50.8959 27.1554 50.7527 27.7554 50.4663 28.301C50.1799 28.8466 49.7912 29.3171 49.3002 29.7126C48.8228 30.1081 48.2637 30.4218 47.6227 30.6536C46.9953 30.8719 46.3339 30.981 45.6383 30.981C44.9427 30.981 44.2744 30.8719 43.6334 30.6536C43.006 30.4218 42.4469 30.1081 41.9559 29.7126C41.4785 29.3171 41.0967 28.8466 40.8103 28.301C40.5239 27.7554 40.3807 27.1554 40.3807 26.5007C40.3807 25.8461 40.5239 25.246 40.8103 24.7004C41.0967 24.1549 41.4785 23.6844 41.9559 23.2888C42.4469 22.8797 43.006 22.566 43.6334 22.3478C44.2744 22.1159 44.9427 22 45.6383 22C46.3339 22 46.9953 22.1091 47.6227 22.3273C48.2637 22.5455 48.8228 22.8592 49.3002 23.2684C49.7912 23.6639 50.1799 24.1412 50.4663 24.7004C50.7527 25.246 50.8959 25.8461 50.8959 26.5007ZM58.909 32.0857C58.6498 32.0857 58.3634 31.9902 58.0497 31.7993C57.7361 31.5947 57.4632 31.3764 57.2314 31.1446C57.0132 30.9264 56.8155 30.6809 56.6381 30.4081C56.4745 30.1217 56.3926 29.8626 56.3926 29.6307V23.2275H65.66V26.0302H68.9333V22.7569H71.7155V32.638C71.7155 32.9108 71.5791 33.0813 71.3064 33.1495C71.0336 33.2176 70.7063 33.2518 70.3244 33.2518C69.888 33.2518 69.547 33.2109 69.3015 33.129C69.056 33.0335 68.9333 32.8699 68.9333 32.638V28.3828H65.66V30.5309C65.66 31.0082 65.5373 31.3901 65.2918 31.6765C65.0599 31.9493 64.6985 32.0857 64.2075 32.0857H58.909ZM68.7287 36.4432H59.2772V34.1315H70.4471C70.8017 34.1315 71.0677 34.2201 71.245 34.3974C71.4223 34.5611 71.5109 34.8611 71.5109 35.2975V41.1894C71.5109 41.4621 71.3745 41.6258 71.1018 41.6804C70.829 41.7349 70.5017 41.7622 70.1198 41.7622C69.6834 41.7622 69.3424 41.7281 69.0969 41.6599C68.8514 41.5917 68.7287 41.4349 68.7287 41.1894V36.4432ZM62.9391 25.5187H59.1135V29.3648C59.1135 29.6512 59.2567 29.7944 59.5431 29.7944H62.9391V25.5187ZM90.1352 32.4335C90.1352 32.7062 89.9993 32.8767 89.726 32.9449C89.4535 33.0131 89.1262 33.0472 88.744 33.0472C88.3078 33.0472 87.9666 33.0063 87.7211 32.9244C87.4757 32.829 87.3529 32.6653 87.3529 32.4335V28.3828H83.9978C83.9029 28.942 83.7114 29.4534 83.425 29.9172C83.1386 30.3809 82.7777 30.7832 82.3408 31.1242C81.9184 31.4651 81.4275 31.7311 80.8678 31.922C80.3227 32.0993 79.7361 32.188 79.1087 32.188C78.4132 32.188 77.7654 32.072 77.1652 31.8402C76.5652 31.6084 76.0401 31.2946 75.59 30.8991C75.1536 30.49 74.8058 30.0058 74.5466 29.4466C74.3012 28.8875 74.1784 28.2805 74.1784 27.6259C74.1784 26.9712 74.3012 26.3643 74.5466 25.8051C74.8058 25.2323 75.1536 24.7413 75.59 24.3322C76.0401 23.923 76.5652 23.6025 77.1652 23.3707C77.7654 23.1388 78.4132 23.0229 79.1087 23.0229C79.6543 23.0229 80.1722 23.0979 80.6632 23.2479C81.1542 23.3843 81.5977 23.5889 81.993 23.8617C82.4021 24.1208 82.7572 24.4345 83.0568 24.8027C83.3709 25.171 83.6091 25.5801 83.7728 26.0302H87.3529V22.7569H90.1352V32.4335ZM89.7669 41.4758C89.5762 41.3394 89.3717 41.1621 89.1532 40.9439C88.9486 40.7393 88.7375 40.5143 88.519 40.2688C88.3013 40.0233 88.0894 39.7641 87.8848 39.4914C87.6941 39.2186 87.5166 38.9458 87.3529 38.6731C87.0665 39.1913 86.7465 39.655 86.3914 40.0642C86.0509 40.487 85.6893 40.8825 85.3071 41.2508C85.1303 41.4008 84.9462 41.5235 84.7548 41.619C84.578 41.7145 84.3865 41.7622 84.182 41.7622C83.8276 41.7622 83.4798 41.5985 83.1386 41.2712C82.7843 40.9439 82.4226 40.5552 82.0543 40.1051C81.7 39.6687 81.3661 39.1777 81.0519 38.6322C80.6976 39.2459 80.295 39.805 79.8452 40.3097C79.3951 40.8279 78.9792 41.244 78.5973 41.5576C78.4064 41.7076 78.229 41.7349 78.0654 41.6395C77.9154 41.544 77.6835 41.3394 77.3698 41.0257C77.0562 40.7121 76.8584 40.4802 76.7765 40.3302C76.7084 40.1802 76.763 40.0233 76.9402 39.8596C77.3358 39.4777 77.6971 39.1027 78.0245 38.7344C78.3654 38.3662 78.6519 37.9843 78.8837 37.5888C79.1292 37.1933 79.3202 36.7842 79.4565 36.3613C79.5929 35.9249 79.6611 35.4544 79.6611 34.9498V33.9882H82.4226V34.8884C82.4226 35.393 82.4708 35.8431 82.5658 36.2386C82.6754 36.6341 82.8113 36.9955 82.9749 37.3229C83.1525 37.6502 83.3432 37.9571 83.5478 38.2435C83.7662 38.5299 83.9913 38.8163 84.2229 39.1027C84.4413 38.8163 84.6525 38.5231 84.8571 38.223C85.0755 37.9366 85.2662 37.6297 85.4299 37.3024C85.5935 36.9751 85.7236 36.6205 85.8186 36.2386C85.9282 35.8431 85.9822 35.393 85.9822 34.8884V33.9882H88.744V34.9498C88.744 35.5362 88.8193 36.0545 88.9691 36.5046C89.1327 36.9546 89.3373 37.3706 89.5828 37.7525C89.8283 38.1344 90.1081 38.489 90.4216 38.8163C90.7357 39.1573 91.0492 39.4982 91.3626 39.8392C91.5131 40.0028 91.5467 40.1597 91.4649 40.3097C91.397 40.4597 91.2267 40.6847 90.9535 40.9848C90.64 41.3258 90.4084 41.5304 90.2579 41.5985C90.1081 41.6667 89.9445 41.6258 89.7669 41.4758ZM81.3588 27.6259C81.3588 27.2986 81.2974 26.9985 81.1747 26.7257C81.0658 26.4393 80.9087 26.2007 80.7041 26.0097C80.5134 25.8051 80.2818 25.6483 80.0089 25.5392C79.7361 25.4164 79.436 25.3551 79.1087 25.3551C78.7951 25.3551 78.5019 25.4164 78.229 25.5392C77.9563 25.6483 77.7176 25.8051 77.513 26.0097C77.3221 26.2007 77.1652 26.4393 77.0425 26.7257C76.9334 26.9985 76.8788 27.2986 76.8788 27.6259C76.8788 28.2805 77.0903 28.8192 77.513 29.242C77.9358 29.6512 78.4677 29.8558 79.1087 29.8558C79.7634 29.8558 80.3023 29.6512 80.7246 29.242C81.1476 28.8192 81.3588 28.2805 81.3588 27.6259ZM107.941 39.8596C107.941 40.0915 107.819 40.2483 107.573 40.3302C107.328 40.412 106.973 40.4529 106.509 40.4529C106.073 40.4529 105.732 40.412 105.487 40.3302C105.241 40.262 105.118 40.1119 105.118 39.8801V22.9615H107.941V39.8596ZM103.298 33.62C103.53 33.62 103.68 33.7291 103.748 33.9473C103.816 34.1519 103.85 34.4451 103.85 34.827C103.85 35.2225 103.816 35.5226 103.748 35.7272C103.68 35.9181 103.53 36.0136 103.298 36.0136H96.035C95.7625 36.0136 95.4622 35.9113 95.1349 35.7067C94.8076 35.5021 94.5285 35.2839 94.2961 35.0521C94.0784 34.8202 93.8804 34.5679 93.7028 34.2951C93.526 34.0087 93.4369 33.7632 93.4369 33.5586V24.3731H96.2601V33.1495C96.2601 33.4631 96.4106 33.62 96.7101 33.62H103.298Z" fill="#333333"/>
<path fill-rule="evenodd" clip-rule="evenodd" d="M20.1619 46.9292C12.0915 46.9292 5.36175 53.5731 7.35279 61.394C13.7899 86.6792 36.711 105.38 63.9999 105.38C91.2889 105.38 114.21 86.6792 120.647 61.394C122.638 53.5731 115.908 46.9292 107.838 46.9292H20.1619ZM112.952 56.7928C112.952 58.6086 111.481 60.0806 109.664 60.0806C107.849 60.0806 106.376 58.6086 106.376 56.7928C106.376 54.9769 107.849 53.5049 109.664 53.5049C111.481 53.5049 112.952 54.9769 112.952 56.7928ZM79.4449 89.0763C79.5248 87.6252 80.5354 86.4054 81.9112 85.936C91.5388 82.65 99.5041 75.2837 103.374 65.5474C103.886 64.259 105.207 63.4475 106.574 63.6862C108.083 63.9501 109.104 65.3924 108.724 66.8772C105.452 79.6718 95.4243 89.2332 83.2066 92.3555C81.1645 92.8772 79.3291 91.1804 79.4449 89.0763Z" fill="#FF5439"/>
</svg>
