<svg width="157" height="116" viewBox="0 0 157 116" fill="none" xmlns="http://www.w3.org/2000/svg">
<path d="M22.428 28.704C22.0547 28.704 21.6627 28.5733 21.252 28.312C20.86 28.0507 20.5053 27.7613 20.188 27.444C19.8707 27.1453 19.5907 26.8093 19.348 26.436C19.124 26.0813 19.012 25.7733 19.012 25.512V17.504H22.792V20.052H31.584V17.504H35.364V26.66C35.364 27.3133 35.196 27.8173 34.86 28.172C34.5427 28.5267 34.0387 28.704 33.348 28.704H22.428ZM24.5 3.14H28.224V13.276C28.224 13.9293 28.056 14.452 27.72 14.844C27.4027 15.2173 26.908 15.404 26.236 15.404H18.956C18.5827 15.404 18.1907 15.2733 17.78 15.012C17.388 14.7507 17.0333 14.4613 16.716 14.144C16.3987 13.8453 16.1187 13.5187 15.876 13.164C15.652 12.7907 15.54 12.4733 15.54 12.212V3.14H19.264V6.164H24.5V3.14ZM31.864 2.916H35.672V7.396H39.9V10.616H35.672V15.292C35.672 15.628 35.504 15.8613 35.168 15.992C34.832 16.104 34.3653 16.16 33.768 16.16C33.1707 16.16 32.704 16.104 32.368 15.992C32.032 15.8613 31.864 15.628 31.864 15.292V2.916ZM31.584 25.54V23.16H22.792V25.12C22.792 25.4 22.9133 25.54 23.156 25.54H31.584ZM19.264 11.848C19.264 12.128 19.3853 12.268 19.628 12.268H24.5V9.3H19.264V11.848ZM41.0113 18.624V15.572H64.1953C64.5686 15.572 64.8019 15.6933 64.8953 15.936C65.0073 16.1787 65.0633 16.5707 65.0633 17.112C65.0633 17.6533 65.0073 18.0453 64.8953 18.288C64.8019 18.512 64.5686 18.624 64.1953 18.624H41.0113ZM47.5073 28.424C47.1899 28.424 46.8446 28.3027 46.4713 28.06C46.0979 27.8173 45.7619 27.5373 45.4633 27.22C45.1833 26.94 44.9313 26.632 44.7073 26.296C44.4833 25.96 44.3713 25.6613 44.3713 25.4V20.444H48.1793V24.532C48.1793 25.0173 48.3939 25.26 48.8233 25.26H60.9753C61.2926 25.26 61.4886 25.4 61.5633 25.68C61.6566 25.9787 61.7033 26.3707 61.7033 26.856C61.7033 27.3787 61.6566 27.7707 61.5633 28.032C61.4886 28.2933 61.2926 28.424 60.9753 28.424H47.5073ZM56.2993 8.04C56.2993 7.68533 56.2246 7.32133 56.0753 6.948C55.9259 6.57467 55.7019 6.23867 55.4033 5.94C55.1233 5.64133 54.7686 5.39867 54.3393 5.212C53.9099 5.02533 53.4153 4.932 52.8553 4.932C52.3139 4.932 51.8286 5.02533 51.3993 5.212C50.9886 5.39867 50.6339 5.64133 50.3353 5.94C50.0553 6.23867 49.8406 6.57467 49.6913 6.948C49.5419 7.32133 49.4673 7.68533 49.4673 8.04C49.4673 8.41333 49.5419 8.78667 49.6913 9.16C49.8406 9.51467 50.0553 9.84133 50.3353 10.14C50.6339 10.42 50.9886 10.6533 51.3993 10.84C51.8286 11.0267 52.3139 11.12 52.8553 11.12C53.4153 11.12 53.9099 11.0267 54.3393 10.84C54.7686 10.6533 55.1233 10.42 55.4033 10.14C55.7019 9.84133 55.9259 9.51467 56.0753 9.16C56.2246 8.78667 56.2993 8.41333 56.2993 8.04ZM60.0793 8.04C60.0793 8.936 59.8833 9.75733 59.4913 10.504C59.0993 11.2507 58.5673 11.8947 57.8953 12.436C57.2419 12.9773 56.4766 13.4067 55.5993 13.724C54.7406 14.0227 53.8353 14.172 52.8833 14.172C51.9313 14.172 51.0166 14.0227 50.1393 13.724C49.2806 13.4067 48.5153 12.9773 47.8433 12.436C47.1899 11.8947 46.6673 11.2507 46.2753 10.504C45.8833 9.75733 45.6873 8.936 45.6873 8.04C45.6873 7.144 45.8833 6.32267 46.2753 5.576C46.6673 4.82933 47.1899 4.18533 47.8433 3.644C48.5153 3.084 49.2806 2.65467 50.1393 2.356C51.0166 2.03867 51.9313 1.88 52.8833 1.88C53.8353 1.88 54.7406 2.02933 55.5993 2.328C56.4766 2.62667 57.2419 3.056 57.8953 3.616C58.5673 4.15733 59.0993 4.81067 59.4913 5.576C59.8833 6.32267 60.0793 7.144 60.0793 8.04ZM71.0465 15.684C70.6918 15.684 70.2998 15.5533 69.8705 15.292C69.4412 15.012 69.0678 14.7133 68.7505 14.396C68.4518 14.0973 68.1812 13.7613 67.9385 13.388C67.7145 12.996 67.6025 12.6413 67.6025 12.324V3.56H80.2865V7.396H84.7665V2.916H88.5745V16.44C88.5745 16.8133 88.3878 17.0467 88.0145 17.14C87.6412 17.2333 87.1932 17.28 86.6705 17.28C86.0732 17.28 85.6065 17.224 85.2705 17.112C84.9345 16.9813 84.7665 16.7573 84.7665 16.44V10.616H80.2865V13.556C80.2865 14.2093 80.1185 14.732 79.7825 15.124C79.4652 15.4973 78.9705 15.684 78.2985 15.684H71.0465ZM84.4865 21.648H71.5505V18.484H86.8385C87.3238 18.484 87.6878 18.6053 87.9305 18.848C88.1732 19.072 88.2945 19.4827 88.2945 20.08V28.144C88.2945 28.5173 88.1078 28.7413 87.7345 28.816C87.3612 28.8907 86.9132 28.928 86.3905 28.928C85.7932 28.928 85.3265 28.8813 84.9905 28.788C84.6545 28.6947 84.4865 28.48 84.4865 28.144V21.648ZM76.5625 6.696H71.3265V11.96C71.3265 12.352 71.5225 12.548 71.9145 12.548H76.5625V6.696ZM113.785 16.16C113.785 16.5333 113.599 16.7667 113.225 16.86C112.852 16.9533 112.404 17 111.881 17C111.284 17 110.817 16.944 110.481 16.832C110.145 16.7013 109.977 16.4773 109.977 16.16V10.616H105.385C105.255 11.3813 104.993 12.0813 104.601 12.716C104.209 13.3507 103.715 13.9013 103.117 14.368C102.539 14.8347 101.867 15.1987 101.101 15.46C100.355 15.7027 99.5521 15.824 98.6934 15.824C97.7414 15.824 96.8548 15.6653 96.0334 15.348C95.2121 15.0307 94.4934 14.6013 93.8774 14.06C93.2801 13.5 92.8041 12.8373 92.4494 12.072C92.1134 11.3067 91.9454 10.476 91.9454 9.58C91.9454 8.684 92.1134 7.85333 92.4494 7.088C92.8041 6.304 93.2801 5.632 93.8774 5.072C94.4934 4.512 95.2121 4.07333 96.0334 3.756C96.8548 3.43867 97.7414 3.28 98.6934 3.28C99.4401 3.28 100.149 3.38267 100.821 3.588C101.493 3.77467 102.1 4.05467 102.641 4.428C103.201 4.78267 103.687 5.212 104.097 5.716C104.527 6.22 104.853 6.78 105.077 7.396H109.977V2.916H113.785V16.16ZM113.281 28.536C113.02 28.3493 112.74 28.1067 112.441 27.808C112.161 27.528 111.872 27.22 111.573 26.884C111.275 26.548 110.985 26.1933 110.705 25.82C110.444 25.4467 110.201 25.0733 109.977 24.7C109.585 25.4093 109.147 26.044 108.661 26.604C108.195 27.1827 107.7 27.724 107.177 28.228C106.935 28.4333 106.683 28.6013 106.421 28.732C106.179 28.8627 105.917 28.928 105.637 28.928C105.152 28.928 104.676 28.704 104.209 28.256C103.724 27.808 103.229 27.276 102.725 26.66C102.24 26.0627 101.783 25.3907 101.353 24.644C100.868 25.484 100.317 26.2493 99.7014 26.94C99.0854 27.6493 98.5161 28.2187 97.9934 28.648C97.7321 28.8533 97.4894 28.8907 97.2654 28.76C97.0601 28.6293 96.7428 28.3493 96.3134 27.92C95.8841 27.4907 95.6134 27.1733 95.5014 26.968C95.4081 26.7627 95.4828 26.548 95.7254 26.324C96.2668 25.8013 96.7614 25.288 97.2094 24.784C97.6761 24.28 98.0681 23.7573 98.3854 23.216C98.7214 22.6747 98.9828 22.1147 99.1694 21.536C99.3561 20.9387 99.4494 20.2947 99.4494 19.604V18.288H103.229V19.52C103.229 20.2107 103.295 20.8267 103.425 21.368C103.575 21.9093 103.761 22.404 103.985 22.852C104.228 23.3 104.489 23.72 104.769 24.112C105.068 24.504 105.376 24.896 105.693 25.288C105.992 24.896 106.281 24.4947 106.561 24.084C106.86 23.692 107.121 23.272 107.345 22.824C107.569 22.376 107.747 21.8907 107.877 21.368C108.027 20.8267 108.101 20.2107 108.101 19.52V18.288H111.881V19.604C111.881 20.4067 111.984 21.116 112.189 21.732C112.413 22.348 112.693 22.9173 113.029 23.44C113.365 23.9627 113.748 24.448 114.177 24.896C114.607 25.3627 115.036 25.8293 115.465 26.296C115.671 26.52 115.717 26.7347 115.605 26.94C115.512 27.1453 115.279 27.4533 114.905 27.864C114.476 28.3307 114.159 28.6107 113.953 28.704C113.748 28.7973 113.524 28.7413 113.281 28.536ZM101.773 9.58C101.773 9.132 101.689 8.72133 101.521 8.348C101.372 7.956 101.157 7.62933 100.877 7.368C100.616 7.088 100.299 6.87333 99.9254 6.724C99.5521 6.556 99.1414 6.472 98.6934 6.472C98.2641 6.472 97.8628 6.556 97.4894 6.724C97.1161 6.87333 96.7894 7.088 96.5094 7.368C96.2481 7.62933 96.0334 7.956 95.8654 8.348C95.7161 8.72133 95.6414 9.132 95.6414 9.58C95.6414 10.476 95.9308 11.2133 96.5094 11.792C97.0881 12.352 97.8161 12.632 98.6934 12.632C99.5894 12.632 100.327 12.352 100.905 11.792C101.484 11.2133 101.773 10.476 101.773 9.58ZM138.156 26.324C138.156 26.6413 137.988 26.856 137.652 26.968C137.316 27.08 136.831 27.136 136.196 27.136C135.599 27.136 135.132 27.08 134.796 26.968C134.46 26.8747 134.292 26.6693 134.292 26.352V3.196H138.156V26.324ZM131.8 17.784C132.118 17.784 132.323 17.9333 132.416 18.232C132.51 18.512 132.556 18.9133 132.556 19.436C132.556 19.9773 132.51 20.388 132.416 20.668C132.323 20.9293 132.118 21.06 131.8 21.06H121.86C121.487 21.06 121.076 20.92 120.628 20.64C120.18 20.36 119.798 20.0613 119.48 19.744C119.182 19.4267 118.911 19.0813 118.668 18.708C118.426 18.316 118.304 17.98 118.304 17.7V5.128H122.168V17.14C122.168 17.5693 122.374 17.784 122.784 17.784H131.8Z" fill="#333333"/>
<path fill-rule="evenodd" clip-rule="evenodd" d="M18.0143 36C6.96862 36 -2.24223 45.0934 0.482855 55.7976C9.29313 90.4048 40.6647 116 78.0143 116C115.364 116 146.735 90.4048 155.546 55.7976C158.271 45.0934 149.06 36 138.014 36H18.0143ZM145.014 49.5C145.014 51.9853 143 54 140.514 54C138.029 54 136.014 51.9853 136.014 49.5C136.014 47.0147 138.029 45 140.514 45C143 45 145.014 47.0147 145.014 49.5ZM99.1534 93.6857C99.2628 91.6995 100.646 90.0301 102.529 89.3876C115.706 84.8901 126.608 74.8081 131.905 61.4823C132.606 59.7188 134.414 58.6082 136.284 58.9349C138.35 59.296 139.747 61.2701 139.227 63.3023C134.748 80.814 121.024 93.9004 104.302 98.1738C101.507 98.8879 98.9949 96.5655 99.1534 93.6857Z" fill="#FF5439"/>
</svg>
