<svg width="404" height="144" viewBox="0 0 404 144" fill="none" xmlns="http://www.w3.org/2000/svg">
<path d="M25.3131 75.3399L41.5131 48.0999V75.3399H25.3131ZM75.5931 75.3399H65.7531V14.9799H40.1931L4.31313 75.3399V94.4199H41.5131V111.58H65.7531V94.4199H75.5931V75.3399Z" fill="#FF5439"/>
<path d="M350.313 75.3399L366.513 48.0999V75.3399H350.313ZM400.593 75.3399H390.753V14.9799H365.193L329.313 75.3399V94.4199H366.513V111.58H390.753V94.4199H400.593V75.3399Z" fill="#FF5439"/>
<path d="M161.387 41.5985C161.114 41.5985 160.827 41.503 160.527 41.3121C160.241 41.1212 159.982 40.9098 159.75 40.6779C159.518 40.4597 159.314 40.2142 159.136 39.9415C158.973 39.6823 158.891 39.4573 158.891 39.2663V33.4154H161.653V35.2771H168.076V33.4154H170.838V40.1051C170.838 40.5824 170.715 40.9507 170.47 41.2098C170.238 41.469 169.87 41.5985 169.365 41.5985H161.387ZM162.9 22.9206H165.621V30.3263C165.621 30.8036 165.499 31.1855 165.253 31.4719C165.021 31.7447 164.66 31.8811 164.169 31.8811H158.85C158.577 31.8811 158.291 31.7856 157.991 31.5947C157.704 31.4038 157.445 31.1923 157.213 30.9605C156.981 30.7423 156.777 30.5036 156.599 30.2445C156.436 29.9717 156.354 29.7398 156.354 29.5489V22.9206H159.075V25.13H162.9V22.9206ZM168.281 22.7569H171.063V26.0302H174.152V28.3828H171.063V31.7993C171.063 32.0448 170.94 32.2152 170.695 32.3107C170.449 32.3925 170.108 32.4335 169.672 32.4335C169.236 32.4335 168.895 32.3925 168.649 32.3107C168.404 32.2152 168.281 32.0448 168.281 31.7993V22.7569ZM168.076 39.2868V37.5479H161.653V38.9799C161.653 39.1845 161.741 39.2868 161.919 39.2868H168.076ZM159.075 29.283C159.075 29.4875 159.164 29.5898 159.341 29.5898H162.9V27.4213H159.075V29.283ZM174.964 34.2337V32.0038H191.903C192.176 32.0038 192.346 32.0925 192.415 32.2698C192.497 32.4471 192.537 32.7335 192.537 33.129C192.537 33.5245 192.497 33.8109 192.415 33.9882C192.346 34.1519 192.176 34.2337 191.903 34.2337H174.964ZM179.71 41.394C179.479 41.394 179.226 41.3053 178.953 41.128C178.681 40.9507 178.435 40.7461 178.217 40.5143C178.012 40.3097 177.828 40.0847 177.665 39.8392C177.501 39.5937 177.419 39.3754 177.419 39.1845V35.5635H180.201V38.5503C180.201 38.9049 180.358 39.0822 180.672 39.0822H189.551C189.782 39.0822 189.926 39.1845 189.98 39.3891C190.048 39.6073 190.082 39.8937 190.082 40.2483C190.082 40.6302 190.048 40.9166 189.98 41.1075C189.926 41.2985 189.782 41.394 189.551 41.394H179.71ZM186.134 26.5007C186.134 26.2416 186.08 25.9756 185.97 25.7029C185.861 25.4301 185.698 25.1846 185.479 24.9664C185.275 24.7482 185.016 24.5709 184.702 24.4345C184.388 24.2981 184.027 24.2299 183.618 24.2299C183.222 24.2299 182.868 24.2981 182.554 24.4345C182.254 24.5709 181.995 24.7482 181.777 24.9664C181.572 25.1846 181.415 25.4301 181.306 25.7029C181.197 25.9756 181.142 26.2416 181.142 26.5007C181.142 26.7735 181.197 27.0462 181.306 27.319C181.415 27.5782 181.572 27.8168 181.777 28.035C181.995 28.2396 182.254 28.4101 182.554 28.5465C182.868 28.6829 183.222 28.7511 183.618 28.7511C184.027 28.7511 184.388 28.6829 184.702 28.5465C185.016 28.4101 185.275 28.2396 185.479 28.035C185.698 27.8168 185.861 27.5782 185.97 27.319C186.08 27.0462 186.134 26.7735 186.134 26.5007ZM188.896 26.5007C188.896 27.1554 188.753 27.7554 188.466 28.301C188.18 28.8466 187.791 29.3171 187.3 29.7126C186.823 30.1081 186.264 30.4218 185.623 30.6536C184.995 30.8719 184.334 30.981 183.638 30.981C182.943 30.981 182.274 30.8719 181.633 30.6536C181.006 30.4218 180.447 30.1081 179.956 29.7126C179.479 29.3171 179.097 28.8466 178.81 28.301C178.524 27.7554 178.381 27.1554 178.381 26.5007C178.381 25.8461 178.524 25.246 178.81 24.7004C179.097 24.1549 179.479 23.6844 179.956 23.2888C180.447 22.8797 181.006 22.566 181.633 22.3478C182.274 22.1159 182.943 22 183.638 22C184.334 22 184.995 22.1091 185.623 22.3273C186.264 22.5455 186.823 22.8592 187.3 23.2684C187.791 23.6639 188.18 24.1412 188.466 24.7004C188.753 25.246 188.896 25.8461 188.896 26.5007ZM196.909 32.0857C196.65 32.0857 196.363 31.9902 196.05 31.7993C195.736 31.5947 195.463 31.3764 195.231 31.1446C195.013 30.9264 194.815 30.6809 194.638 30.4081C194.474 30.1217 194.393 29.8626 194.393 29.6307V23.2275H203.66V26.0302H206.933V22.7569H209.716V32.638C209.716 32.9108 209.579 33.0813 209.306 33.1495C209.034 33.2176 208.706 33.2518 208.324 33.2518C207.888 33.2518 207.547 33.2109 207.301 33.129C207.056 33.0335 206.933 32.8699 206.933 32.638V28.3828H203.66V30.5309C203.66 31.0082 203.537 31.3901 203.292 31.6765C203.06 31.9493 202.698 32.0857 202.208 32.0857H196.909ZM206.729 36.4432H197.277V34.1315H208.447C208.802 34.1315 209.068 34.2201 209.245 34.3974C209.422 34.5611 209.511 34.8611 209.511 35.2975V41.1894C209.511 41.4621 209.375 41.6258 209.102 41.6804C208.829 41.7349 208.502 41.7622 208.12 41.7622C207.683 41.7622 207.342 41.7281 207.097 41.6599C206.851 41.5917 206.729 41.4349 206.729 41.1894V36.4432ZM200.939 25.5187H197.114V29.3648C197.114 29.6512 197.257 29.7944 197.543 29.7944H200.939V25.5187ZM228.135 32.4335C228.135 32.7062 227.999 32.8767 227.726 32.9449C227.453 33.0131 227.126 33.0472 226.744 33.0472C226.308 33.0472 225.967 33.0063 225.721 32.9244C225.476 32.8289 225.353 32.6653 225.353 32.4335V28.3828H221.998C221.903 28.942 221.711 29.4534 221.425 29.9172C221.139 30.3809 220.778 30.7832 220.341 31.1242C219.918 31.4651 219.427 31.7311 218.868 31.922C218.323 32.0993 217.736 32.188 217.109 32.188C216.413 32.188 215.765 32.072 215.165 31.8402C214.565 31.6084 214.04 31.2946 213.59 30.8991C213.154 30.49 212.806 30.0058 212.547 29.4466C212.301 28.8875 212.178 28.2805 212.178 27.6259C212.178 26.9712 212.301 26.3643 212.547 25.8051C212.806 25.2323 213.154 24.7413 213.59 24.3322C214.04 23.923 214.565 23.6025 215.165 23.3707C215.765 23.1388 216.413 23.0229 217.109 23.0229C217.654 23.0229 218.172 23.0979 218.663 23.2479C219.154 23.3843 219.598 23.5889 219.993 23.8617C220.402 24.1208 220.757 24.4345 221.057 24.8027C221.371 25.171 221.609 25.5801 221.773 26.0302H225.353V22.7569H228.135V32.4335ZM227.767 41.4758C227.576 41.3394 227.372 41.1621 227.153 40.9439C226.949 40.7393 226.737 40.5143 226.519 40.2688C226.301 40.0233 226.089 39.7641 225.885 39.4914C225.694 39.2186 225.517 38.9458 225.353 38.6731C225.066 39.1913 224.746 39.655 224.391 40.0642C224.051 40.487 223.689 40.8825 223.307 41.2508C223.13 41.4008 222.946 41.5235 222.755 41.619C222.578 41.7145 222.387 41.7622 222.182 41.7622C221.828 41.7622 221.48 41.5985 221.139 41.2712C220.784 40.9439 220.423 40.5552 220.054 40.1051C219.7 39.6687 219.366 39.1777 219.052 38.6322C218.698 39.2459 218.295 39.805 217.845 40.3097C217.395 40.8279 216.979 41.244 216.597 41.5576C216.406 41.7076 216.229 41.7349 216.065 41.6395C215.915 41.544 215.684 41.3394 215.37 41.0257C215.056 40.7121 214.858 40.4802 214.777 40.3302C214.708 40.1802 214.763 40.0233 214.94 39.8596C215.336 39.4777 215.697 39.1027 216.024 38.7344C216.365 38.3662 216.652 37.9843 216.884 37.5888C217.129 37.1933 217.32 36.7842 217.457 36.3613C217.593 35.9249 217.661 35.4544 217.661 34.9498V33.9882H220.423V34.8884C220.423 35.393 220.471 35.8431 220.566 36.2386C220.675 36.6341 220.811 36.9955 220.975 37.3229C221.152 37.6502 221.343 37.9571 221.548 38.2435C221.766 38.5299 221.991 38.8163 222.223 39.1027C222.441 38.8163 222.652 38.5231 222.857 38.223C223.076 37.9366 223.266 37.6297 223.43 37.3024C223.594 36.9751 223.724 36.6205 223.819 36.2386C223.928 35.8431 223.982 35.393 223.982 34.8884V33.9882H226.744V34.9498C226.744 35.5362 226.819 36.0545 226.969 36.5046C227.133 36.9546 227.337 37.3706 227.583 37.7525C227.828 38.1344 228.108 38.489 228.422 38.8163C228.736 39.1573 229.049 39.4982 229.363 39.8392C229.513 40.0028 229.547 40.1597 229.465 40.3097C229.397 40.4597 229.227 40.6847 228.953 40.9848C228.64 41.3258 228.408 41.5304 228.258 41.5985C228.108 41.6667 227.944 41.6258 227.767 41.4758ZM219.359 27.6259C219.359 27.2986 219.297 26.9985 219.175 26.7257C219.066 26.4393 218.909 26.2007 218.704 26.0097C218.513 25.8051 218.282 25.6483 218.009 25.5392C217.736 25.4164 217.436 25.3551 217.109 25.3551C216.795 25.3551 216.502 25.4164 216.229 25.5392C215.956 25.6483 215.718 25.8051 215.513 26.0097C215.322 26.2007 215.165 26.4393 215.042 26.7257C214.933 26.9985 214.879 27.2986 214.879 27.6259C214.879 28.2805 215.09 28.8192 215.513 29.242C215.936 29.6512 216.468 29.8558 217.109 29.8558C217.763 29.8558 218.302 29.6512 218.725 29.242C219.148 28.8192 219.359 28.2805 219.359 27.6259ZM245.941 39.8596C245.941 40.0915 245.819 40.2483 245.573 40.3302C245.328 40.412 244.973 40.4529 244.509 40.4529C244.073 40.4529 243.732 40.412 243.487 40.3302C243.241 40.262 243.118 40.1119 243.118 39.8801V22.9615H245.941V39.8596ZM241.298 33.62C241.53 33.62 241.68 33.7291 241.748 33.9473C241.816 34.1519 241.85 34.4451 241.85 34.827C241.85 35.2225 241.816 35.5226 241.748 35.7272C241.68 35.9181 241.53 36.0136 241.298 36.0136H234.035C233.763 36.0136 233.462 35.9113 233.135 35.7067C232.808 35.5021 232.528 35.2839 232.296 35.0521C232.078 34.8202 231.88 34.5679 231.703 34.2951C231.526 34.0087 231.437 33.7632 231.437 33.5586V24.3731H234.26V33.1495C234.26 33.4631 234.411 33.62 234.71 33.62H241.298Z" fill="#333333"/>
<path fill-rule="evenodd" clip-rule="evenodd" d="M158.162 46.9292C150.092 46.9292 143.362 53.5731 145.353 61.394C151.79 86.6792 174.711 105.38 202 105.38C229.289 105.38 252.21 86.6792 258.647 61.394C260.638 53.5731 253.908 46.9292 245.838 46.9292H158.162ZM250.952 56.7928C250.952 58.6086 249.481 60.0806 247.664 60.0806C245.849 60.0806 244.376 58.6086 244.376 56.7928C244.376 54.9769 245.849 53.5049 247.664 53.5049C249.481 53.5049 250.952 54.9769 250.952 56.7928ZM217.445 89.0763C217.525 87.6252 218.535 86.4054 219.911 85.936C229.539 82.65 237.504 75.2837 241.374 65.5474C241.886 64.259 243.207 63.4475 244.574 63.6862C246.083 63.9501 247.104 65.3924 246.724 66.8772C243.451 79.6718 233.424 89.2332 221.207 92.3555C219.164 92.8773 217.329 91.1804 217.445 89.0763Z" fill="#FF5439"/>
</svg>
