<svg width="626" height="143" viewBox="0 0 626 143" fill="none" xmlns="http://www.w3.org/2000/svg">
<path d="M83.6052 17.916C83.6052 12.732 83.2452 8.952 81.8772 7.224C81.2292 6.324 80.2212 5.856 79.0332 5.856C77.8812 5.856 76.8732 6.324 76.1892 7.224C74.8932 8.952 74.4972 12.732 74.4972 17.916C74.4972 23.1 74.8932 26.88 76.1892 28.644C76.8732 29.472 77.8812 29.94 79.0332 29.94C80.2212 29.94 81.2292 29.472 81.8772 28.644C83.2452 26.88 83.6052 23.1 83.6052 17.916ZM70.6092 17.916C70.6092 12.012 71.1852 7.584 73.2732 5.028C74.6052 3.372 76.6212 2.472 79.0332 2.472C81.4812 2.472 83.4612 3.372 84.8292 5.028C86.9172 7.584 87.4932 12.012 87.4932 17.916C87.4932 23.82 86.9172 28.248 84.8292 30.804C83.4612 32.46 81.4812 33.288 79.0332 33.288C76.6212 33.288 74.6052 32.46 73.2732 30.804C71.1852 28.248 70.6092 23.82 70.6092 17.916ZM97.0692 2.472V35.124H93.1452V2.472H97.0692ZM105.78 8.628C105.78 6.9 106.5 5.604 107.832 4.632C110.136 2.976 114.132 2.436 118.992 2.436C123.816 2.436 127.848 2.976 130.116 4.632C131.448 5.604 132.168 6.9 132.168 8.628C132.168 10.392 131.448 11.688 130.116 12.624C129.252 13.272 128.136 13.74 126.804 14.064V17.664H133.644V21.012H104.232V17.664H111.252V14.1C109.884 13.776 108.732 13.272 107.832 12.624C106.5 11.688 105.78 10.392 105.78 8.628ZM122.952 14.712C121.728 14.82 120.396 14.856 118.992 14.856C117.624 14.856 116.328 14.82 115.104 14.712V17.664H122.952V14.712ZM109.704 8.628C109.704 9.276 110.028 9.816 110.604 10.212C112.008 11.184 115.032 11.544 118.992 11.544C122.952 11.544 125.94 11.184 127.344 10.212C127.956 9.816 128.28 9.276 128.28 8.628C128.28 7.98 127.956 7.476 127.344 7.08C125.94 6.108 122.952 5.748 118.992 5.748C115.032 5.748 112.008 6.108 110.604 7.08C110.028 7.476 109.704 7.98 109.704 8.628ZM105.78 29.868C105.78 27.852 106.716 26.484 108.408 25.476C110.676 24.18 114.348 23.64 118.992 23.64C123.672 23.64 127.272 24.18 129.54 25.476C131.232 26.484 132.168 27.852 132.168 29.868C132.168 31.884 131.232 33.252 129.54 34.26C127.272 35.556 123.672 36.06 118.992 36.06C114.348 36.06 110.676 35.556 108.408 34.26C106.716 33.252 105.78 31.884 105.78 29.868ZM109.704 29.868C109.704 30.588 110.1 31.2 110.82 31.632C112.296 32.46 115.032 32.784 118.992 32.784C122.952 32.784 125.688 32.46 127.128 31.632C127.884 31.2 128.28 30.588 128.28 29.868C128.28 29.148 127.884 28.572 127.128 28.104C125.688 27.276 122.952 26.952 118.992 26.952C115.032 26.952 112.296 27.276 110.82 28.104C110.1 28.572 109.704 29.148 109.704 29.868ZM139.51 17.916C139.51 10.068 140.194 6.072 142.066 4.02C143.038 3.012 144.298 2.472 146.026 2.472C147.754 2.472 149.05 3.012 149.986 4.02C151.678 5.856 152.398 9.204 152.542 15.432H156.106V2.688H159.922V34.728H156.106V18.852H152.578C152.506 26.088 151.822 29.832 149.986 31.812C149.05 32.784 147.754 33.288 146.026 33.288C144.298 33.288 143.038 32.784 142.066 31.812C140.194 29.76 139.51 25.764 139.51 17.916ZM143.254 17.916C143.254 24.648 143.542 27.888 144.55 29.22C144.91 29.724 145.414 29.94 146.026 29.94C146.674 29.94 147.142 29.724 147.538 29.22C148.546 27.888 148.798 24.648 148.798 17.916C148.798 11.184 148.546 7.908 147.538 6.612C147.142 6.108 146.674 5.856 146.026 5.856C145.414 5.856 144.91 6.108 144.55 6.612C143.542 7.908 143.254 11.184 143.254 17.916ZM166.69 35.124H162.874V2.472H166.69V35.124ZM185.986 2.868H189.874V5.388H207.19V2.868H211.114V14.028H185.986V2.868ZM207.19 10.932V8.448H189.874V10.932H207.19ZM183.826 19.356V16.116H213.238V19.356H200.422V21.768H211.114V30.156H189.874V32.388H211.834V35.448H185.986V27.096H207.19V24.864H185.986V21.768H196.57V19.356H183.826ZM230.66 12.444V6.18H225.944V17.664H230.192C230.516 16.188 230.66 14.28 230.66 12.444ZM222.128 17.664V6.18H219.104V2.868H237.572V6.18H234.44V12.264C234.44 14.172 234.296 16.152 233.864 17.664H233.972C235.88 17.664 237.644 17.556 239.192 17.088V20.184C237.68 20.724 235.808 20.94 233.72 20.94H218.708V17.664H222.128ZM236.852 10.356V7.296H241.928V2.472H245.852V25.332H241.928V15.72H236.852V12.66H241.928V10.356H236.852ZM246.428 35.268H221.444V24.18H225.368V31.884H246.428V35.268ZM254.491 7.656C254.491 6.288 255.031 5.244 256.075 4.452C258.091 2.976 261.979 2.436 267.703 2.436C273.463 2.436 277.315 2.976 279.295 4.452C280.339 5.244 280.879 6.288 280.879 7.656C280.879 8.988 280.339 10.032 279.295 10.824C277.315 12.3 273.463 12.84 267.703 12.84C261.979 12.84 258.091 12.3 256.075 10.824C255.031 10.032 254.491 8.988 254.491 7.656ZM258.415 7.656C258.415 8.052 258.631 8.412 259.063 8.736C260.215 9.42 263.095 9.672 267.703 9.672C272.311 9.672 275.191 9.42 276.343 8.736C276.775 8.412 276.991 8.052 276.991 7.656C276.991 7.224 276.775 6.864 276.343 6.576C275.191 5.856 272.311 5.604 267.703 5.604C263.095 5.604 260.215 5.856 259.063 6.576C258.631 6.864 258.415 7.224 258.415 7.656ZM252.943 18.528V15.288H282.355V18.528H252.943ZM258.991 29.904V32.28H280.951V35.448H255.103V26.772H276.307V24.36H255.103V21.192H280.231V29.904H258.991ZM325.482 6.504H303.81V18.24H325.842V21.66H299.886V3.048H325.482V6.504ZM298.194 33.684V30.3H327.174V33.684H298.194ZM345.784 32.928H333.868V16.116H344.308V6.504H333.868V3.048H348.16V19.536H337.756V29.508H346C348.412 29.508 350.644 29.328 352.3 28.752V31.992C350.68 32.64 348.304 32.928 345.784 32.928ZM359.932 2.472V35.124H356.008V23.784H350.032V20.364H356.008V13.344H350.032V9.924H356.008V2.472H359.932ZM396.364 6.504H389.668V8.592C389.668 13.92 392.8 16.872 396.904 18.492V22.02C392.836 20.832 389.308 18.276 387.76 15.648C386.32 18.348 382.864 21.084 378.508 22.452V18.924C382.684 17.232 385.744 13.92 385.744 8.628V6.504H378.904V3.048H396.364V6.504ZM404.968 2.472V35.124H401.044V31.416C399.64 32.748 396.688 33.252 393.088 33.252H377.896V29.904H385.888V21.66H389.776V29.904H394.096C397.048 29.904 399.532 29.472 401.044 28.212V2.472H404.968ZM426.782 9.312C424.334 12.156 419.15 14.424 413.066 15.036V11.652C419.186 10.788 424.838 8.232 424.838 3.588V2.688H428.726V3.588C428.726 8.232 434.306 10.788 440.57 11.652V15.036C434.414 14.424 429.23 12.156 426.782 9.312ZM412.13 21.012V17.664H424.838V13.416H428.726V17.664H441.542V21.012H412.13ZM413.678 29.868C413.678 27.852 414.614 26.484 416.306 25.476C418.574 24.18 422.246 23.64 426.89 23.64C431.57 23.64 435.17 24.18 437.438 25.476C439.13 26.484 440.066 27.852 440.066 29.868C440.066 31.884 439.13 33.252 437.438 34.26C435.17 35.556 431.57 36.06 426.89 36.06C422.246 36.06 418.574 35.556 416.306 34.26C414.614 33.252 413.678 31.884 413.678 29.868ZM417.602 29.868C417.602 30.588 417.998 31.2 418.718 31.632C420.194 32.46 422.93 32.784 426.89 32.784C430.85 32.784 433.586 32.46 435.026 31.632C435.782 31.2 436.178 30.588 436.178 29.868C436.178 29.148 435.782 28.572 435.026 28.104C433.586 27.276 430.85 26.952 426.89 26.952C422.93 26.952 420.194 27.276 418.718 28.104C417.998 28.572 417.602 29.148 417.602 29.868ZM464.797 7.872H446.221V4.668H453.673V1.536H457.561V4.668H464.797V7.872ZM450.973 15.144C450.973 15.864 451.297 16.44 451.837 16.836C452.629 17.52 453.961 17.844 455.545 17.844C456.949 17.844 458.137 17.592 459.001 17.052C459.685 16.584 460.117 15.972 460.117 15.144C460.117 14.388 459.721 13.776 459.073 13.308C458.209 12.732 456.985 12.408 455.545 12.408C454.033 12.408 452.701 12.768 451.909 13.416C451.333 13.884 450.973 14.46 450.973 15.144ZM447.193 15.144C447.193 13.416 447.985 12.048 449.281 11.076C450.793 9.96 452.989 9.348 455.545 9.348C457.957 9.348 460.081 9.888 461.557 10.896C463.033 11.832 463.861 13.308 463.861 15.144C463.861 17.052 462.997 18.492 461.485 19.464C459.973 20.436 457.921 20.94 455.545 20.94C453.061 20.94 450.865 20.364 449.353 19.284C448.021 18.312 447.193 16.944 447.193 15.144ZM473.293 2.472V10.356H478.045V13.776H473.293V20.94H469.369V2.472H473.293ZM469.369 25.872V22.668H473.293V35.448H449.209V22.668H453.097V25.872H469.369ZM469.369 29.148H453.097V32.172H469.369V29.148ZM497.051 32.928H482.579V2.868H486.467V29.508H497.771C500.831 29.508 503.279 28.824 504.719 27.564V2.472H508.643V35.124H504.719V30.732C503.351 32.136 500.471 32.928 497.051 32.928ZM531.034 32.928H516.886V3.048H532.618V6.504H520.774V29.508H531.754C534.742 29.508 537.118 28.86 538.486 27.636V2.472H542.41V15.792H547.522V19.212H542.41V35.124H538.486V30.876C537.154 32.172 534.346 32.928 531.034 32.928ZM555.585 28.176H551.121V32.964H555.585V28.176Z" fill="#333333"/>
<path d="M146.472 118.168H128.856V117.016H136.92V115.072H138.408V117.016H146.472V118.168ZM131.04 122.656C131.04 122.992 131.208 123.304 131.592 123.544C132.552 124.12 134.64 124.36 137.688 124.36C140.736 124.36 142.824 124.12 143.784 123.544C144.168 123.304 144.336 122.992 144.336 122.656C144.336 122.32 144.168 122.032 143.784 121.792C142.824 121.192 140.736 120.976 137.688 120.976C134.64 120.976 132.552 121.192 131.592 121.792C131.208 122.032 131.04 122.32 131.04 122.656ZM129.576 122.656C129.576 121.96 129.936 121.408 130.656 120.976C131.904 120.208 134.304 119.848 137.688 119.848C141.072 119.848 143.472 120.208 144.72 120.976C145.44 121.408 145.8 121.96 145.8 122.656C145.8 123.352 145.44 123.928 144.72 124.36C143.568 125.08 141.408 125.44 138.384 125.488V127.888H147.264V129.112H128.088V127.888H136.92V125.488C133.944 125.44 131.808 125.08 130.656 124.36C129.936 123.928 129.576 123.352 129.576 122.656ZM145.776 137.416H129.576V131.584H145.776V137.416ZM144.312 136.216V132.784H131.04V136.216H144.312ZM151.943 122.44C151.943 120.448 152.735 118.84 154.175 117.736C155.687 116.584 157.919 116.032 160.727 116.032C163.535 116.032 165.767 116.584 167.279 117.736C168.719 118.84 169.511 120.448 169.511 122.44C169.511 124.384 168.719 126.04 167.279 127.072C165.767 128.248 163.535 128.8 160.727 128.8C157.919 128.8 155.687 128.248 154.175 127.072C152.735 126.04 151.943 124.384 151.943 122.44ZM153.407 122.44C153.407 123.928 154.007 125.128 155.087 125.968C156.311 126.976 158.231 127.528 160.727 127.528C163.223 127.528 165.143 126.976 166.391 125.968C167.471 125.128 168.047 123.928 168.047 122.44C168.047 120.952 167.471 119.704 166.391 118.864C165.143 117.88 163.223 117.328 160.727 117.328C158.231 117.328 156.311 117.88 155.087 118.864C154.007 119.704 153.407 120.952 153.407 122.44ZM151.247 136.168V134.944H170.183V136.168H151.247ZM176.926 123.52V128.176H192.31V129.448H184.534V134.944H193.222V136.168H174.286V134.944H183.07V129.448H175.462V122.248H190.582V117.592H175.462V116.296H192.046V123.52H176.926ZM221.831 117.4H207.095V120.928H221.951V122.152H214.439V124.936H223.319V126.184H204.143V124.936H212.975V122.152H205.631V116.176H221.831V117.4ZM207.095 133.696V136.216H222.383V137.416H205.631V132.496H220.367V129.928H205.631V128.728H221.831V133.696H207.095ZM237.046 125.944C237.046 122.2 236.614 119.512 235.414 118.168C234.838 117.52 234.046 117.16 233.062 117.16C232.078 117.16 231.286 117.52 230.71 118.168C229.51 119.512 229.126 122.2 229.126 125.944C229.126 129.712 229.51 132.424 230.71 133.768C231.286 134.392 232.078 134.728 233.062 134.728C234.046 134.728 234.838 134.392 235.414 133.768C236.614 132.424 237.046 129.712 237.046 125.944ZM227.662 125.944C227.662 121.864 228.19 118.888 229.678 117.28C230.494 116.368 231.646 115.888 233.062 115.888C234.502 115.888 235.654 116.368 236.47 117.28C237.958 118.888 238.486 121.864 238.486 125.944C238.486 130.024 237.958 133.024 236.47 134.632C235.654 135.568 234.502 135.952 233.062 135.952C231.646 135.952 230.494 135.568 229.678 134.632C228.19 133.024 227.662 130.024 227.662 125.944ZM244.414 115.888V125.032H247.99V126.28H244.414V137.152H242.95V115.888H244.414ZM259.581 120.76V117.616H250.965V116.296H261.021V120.616C261.021 128.776 257.685 133.984 250.797 135.784V134.464C256.629 132.76 259.581 128.08 259.581 120.76ZM267.453 115.888V125.032H271.029V126.28H267.453V137.152H265.989V115.888H267.453ZM279.308 129.016C278.612 132.04 276.14 134.56 273.164 135.688V134.344C275.9 133.096 278.564 130.552 278.564 124.696V116.152H280.028V124.696C280.028 130.552 282.74 133 285.452 134.344V135.688C282.524 134.488 280.004 132.04 279.308 129.016ZM290.996 115.888V137.152H289.532V125.224H284.012V123.928H289.532V115.888H290.996ZM313.124 135.664H303.98V116.272H313.892V117.592H305.444V134.392H313.316C315.668 134.392 317.78 133.72 319.004 132.544V115.888H320.468V125.032H324.044V126.28H320.468V137.152H319.004V133.792C317.876 135.016 315.596 135.664 313.124 135.664ZM332.323 129.016C331.627 132.04 329.155 134.56 326.179 135.688V134.344C328.915 133.096 331.579 130.552 331.579 124.696V116.152H333.043V124.696C333.043 130.552 335.755 133 338.467 134.344V135.688C335.539 134.488 333.019 132.04 332.323 129.016ZM342.547 137.128V115.888H344.011V137.128H342.547ZM366.308 125.944C366.308 122.2 365.9 119.512 364.7 118.168C364.124 117.52 363.332 117.16 362.348 117.16C361.388 117.16 360.596 117.52 359.996 118.168C358.82 119.512 358.412 122.2 358.412 125.944C358.412 129.712 358.82 132.424 359.996 133.768C360.596 134.392 361.388 134.728 362.348 134.728C363.332 134.728 364.124 134.392 364.7 133.768C365.9 132.424 366.308 129.712 366.308 125.944ZM356.948 125.944C356.948 121.864 357.452 118.888 358.94 117.28C359.756 116.368 360.932 115.888 362.348 115.888C363.764 115.888 364.916 116.368 365.756 117.28C367.268 118.888 367.772 121.864 367.772 125.944C367.772 130.024 367.268 133.024 365.756 134.632C364.916 135.568 363.764 135.952 362.348 135.952C360.932 135.952 359.756 135.568 358.94 134.632C357.452 133.024 356.948 130.024 356.948 125.944ZM372.524 137.128V115.888H373.988V137.128H372.524ZM380.371 119.656C380.371 118.648 380.803 117.856 381.667 117.28C383.083 116.296 385.603 115.888 388.915 115.888C392.203 115.888 394.747 116.296 396.163 117.28C397.003 117.856 397.459 118.648 397.459 119.656C397.459 120.664 397.003 121.456 396.163 122.032C395.539 122.44 394.723 122.776 393.715 122.992V126.304H398.467V127.6H379.291V126.304H384.139V122.992C383.107 122.776 382.291 122.464 381.667 122.032C380.803 121.456 380.371 120.664 380.371 119.656ZM392.275 123.232C391.267 123.352 390.139 123.424 388.915 123.424C387.691 123.424 386.563 123.376 385.579 123.232V126.304H392.275V123.232ZM381.835 119.656C381.835 120.232 382.123 120.712 382.675 121.072C383.779 121.816 385.939 122.176 388.915 122.176C391.891 122.176 394.051 121.816 395.155 121.072C395.731 120.712 395.995 120.232 395.995 119.656C395.995 119.08 395.731 118.6 395.155 118.24C394.051 117.472 391.891 117.136 388.915 117.136C385.939 117.136 383.779 117.472 382.675 118.24C382.123 118.6 381.835 119.08 381.835 119.656ZM380.371 134.056C380.371 133 380.851 132.16 381.859 131.584C383.299 130.696 385.675 130.24 388.915 130.24C392.155 130.24 394.531 130.696 395.947 131.584C396.955 132.16 397.459 133 397.459 134.056C397.459 135.112 396.955 135.952 395.947 136.552C394.531 137.44 392.155 137.824 388.915 137.824C385.675 137.824 383.299 137.44 381.859 136.552C380.851 135.952 380.371 135.112 380.371 134.056ZM381.835 134.056C381.835 134.632 382.123 135.136 382.723 135.496C383.827 136.216 385.939 136.576 388.915 136.576C391.891 136.576 394.003 136.216 395.107 135.496C395.731 135.136 395.995 134.632 395.995 134.056C395.995 133.48 395.731 133 395.107 132.568C394.003 131.896 391.891 131.536 388.915 131.536C385.939 131.536 383.827 131.896 382.723 132.568C382.123 133 381.835 133.48 381.835 134.056ZM411.666 119.92H402.666V118.624H406.482V115.192H407.946V118.624H411.666V119.92ZM404.562 129.184C404.562 131.824 404.994 133.456 405.786 134.224C406.17 134.632 406.674 134.8 407.226 134.8C407.778 134.8 408.258 134.632 408.666 134.224C409.434 133.456 409.89 131.824 409.89 129.184C409.89 126.544 409.434 124.936 408.666 124.144C408.258 123.736 407.778 123.568 407.226 123.568C406.674 123.568 406.17 123.736 405.786 124.144C404.994 124.936 404.562 126.544 404.562 129.184ZM403.146 129.184C403.146 126.112 403.77 124.096 404.97 123.088C405.594 122.56 406.338 122.296 407.226 122.296C408.114 122.296 408.882 122.56 409.482 123.088C410.682 124.096 411.306 126.112 411.306 129.184C411.306 132.28 410.682 134.272 409.482 135.304C408.882 135.808 408.114 136.048 407.226 136.048C406.338 136.048 405.594 135.808 404.97 135.304C403.77 134.272 403.146 132.28 403.146 129.184ZM420.402 137.152H418.986V126.184H415.602V136.912H414.186V116.008H415.602V124.864H418.986V115.888H420.402V137.152ZM426.665 117.448V116.176H443.249V117.448H435.665V118.456C435.665 122.296 439.625 124.72 443.441 125.392V126.712C439.481 125.992 436.313 124.12 434.945 121.384C433.577 124.12 430.241 126.04 426.425 126.712V125.392C430.145 124.744 434.201 122.296 434.201 118.456V117.448H426.665ZM425.489 131.464V130.168H444.425V131.464H435.665V137.536H434.201V131.464H425.489ZM452.824 129.904C452.224 132.232 450.544 134.392 448.048 135.688V134.32C450.256 133 452.104 130.6 452.104 125.728V116.152H453.568V125.728C453.568 130.624 455.392 132.952 457.648 134.344V135.688C455.176 134.392 453.472 132.232 452.824 129.904ZM461.584 136.912H460.168V125.416H456.232V124.12H460.168V116.008H461.584V136.912ZM466.48 137.152H465.04V115.888H466.48V137.152ZM472.263 122.248C472.263 120.424 472.983 118.96 474.279 117.904C475.791 116.656 478.119 116.032 481.047 116.032C483.975 116.032 486.303 116.656 487.815 117.904C489.111 118.96 489.831 120.424 489.831 122.248C489.831 124.072 489.111 125.536 487.815 126.592C487.287 127.048 486.639 127.408 485.895 127.696V134.944H490.503V136.168H471.567V134.944H476.295V127.744C475.527 127.456 474.831 127.072 474.279 126.592C472.983 125.536 472.263 124.072 472.263 122.248ZM484.431 128.152C483.423 128.368 482.295 128.488 481.047 128.488C479.847 128.488 478.743 128.392 477.759 128.176V134.944H484.431V128.152ZM473.727 122.248C473.727 123.664 474.303 124.768 475.287 125.608C476.559 126.664 478.551 127.192 481.047 127.192C483.543 127.192 485.535 126.664 486.831 125.608C487.815 124.768 488.367 123.664 488.367 122.248C488.367 120.856 487.815 119.728 486.831 118.888C485.535 117.832 483.543 117.328 481.047 117.328C478.551 117.328 476.559 117.832 475.287 118.888C474.303 119.728 473.727 120.856 473.727 122.248ZM497.078 133.336H495.302V135.904H497.078V133.336Z" fill="#333333"/>
<path d="M3.13834 77.248C3.13834 75.424 3.85834 73.96 5.15434 72.904C6.66634 71.656 8.99434 71.032 11.9223 71.032C14.8503 71.032 17.1783 71.656 18.6903 72.904C19.9863 73.96 20.7063 75.424 20.7063 77.248C20.7063 79.072 19.9863 80.536 18.6903 81.592C18.1623 82.048 17.5143 82.408 16.7703 82.696V89.944H21.3783V91.168H2.44234V89.944H7.17034V82.744C6.40234 82.456 5.70634 82.072 5.15434 81.592C3.85834 80.536 3.13834 79.072 3.13834 77.248ZM15.3063 83.152C14.2983 83.368 13.1703 83.488 11.9223 83.488C10.7223 83.488 9.61834 83.392 8.63434 83.176V89.944H15.3063V83.152ZM4.60234 77.248C4.60234 78.664 5.17834 79.768 6.16234 80.608C7.43434 81.664 9.42634 82.192 11.9223 82.192C14.4183 82.192 16.4103 81.664 17.7063 80.608C18.6903 79.768 19.2423 78.664 19.2423 77.248C19.2423 75.856 18.6903 74.728 17.7063 73.888C16.4103 72.832 14.4183 72.328 11.9223 72.328C9.42634 72.328 7.43434 72.832 6.16234 73.888C5.17834 74.728 4.60234 75.856 4.60234 77.248ZM26.0814 72.952H30.6894V70.216H32.1534V72.952H36.7854V74.224H32.1534V74.992C32.1534 78.544 34.6494 80.56 37.1454 81.16V82.528C34.5534 81.904 32.3694 80.224 31.4574 78.136C30.5934 80.296 28.4094 82.24 25.7454 82.792V81.472C28.3374 80.872 30.6894 78.592 30.6894 74.992V74.224H26.0814V72.952ZM43.1934 83.248H41.7294V78.016H36.8094V76.768H41.7294V70.888H43.1934V83.248ZM27.1134 88.6C27.1134 87.352 27.7614 86.416 28.8894 85.744C30.4014 84.88 32.7054 84.472 35.3934 84.472C38.1054 84.472 40.3854 84.88 41.8974 85.744C43.0014 86.416 43.6974 87.352 43.6974 88.6C43.6974 89.848 43.0014 90.784 41.8974 91.456C40.3854 92.32 38.1054 92.704 35.3934 92.704C32.7054 92.704 30.4014 92.32 28.8894 91.456C27.7614 90.784 27.1134 89.848 27.1134 88.6ZM28.5774 88.6C28.5774 89.32 28.9854 89.92 29.7294 90.376C30.9054 91.096 32.8974 91.456 35.3934 91.456C37.8894 91.456 39.8814 91.096 41.0814 90.376C41.8254 89.92 42.2334 89.32 42.2334 88.6C42.2334 87.856 41.8254 87.304 41.0814 86.824C39.8814 86.104 37.8894 85.744 35.3934 85.744C32.8974 85.744 30.9054 86.104 29.7294 86.824C28.9854 87.304 28.5774 87.856 28.5774 88.6ZM48.1845 74.944V73.624H53.5605V70.216H55.0245V73.624H60.4485V74.944H48.1845ZM50.5845 84.232C50.5845 86.392 51.0405 87.952 51.9285 88.864C52.5525 89.488 53.3685 89.776 54.3525 89.776C55.3365 89.776 56.1525 89.488 56.7765 88.864C57.6645 87.952 58.1205 86.392 58.1205 84.232C58.1205 82.072 57.6645 80.512 56.7765 79.624C56.1525 79 55.3365 78.688 54.3525 78.688C53.3685 78.688 52.5525 79 51.9285 79.624C51.0405 80.512 50.5845 82.072 50.5845 84.232ZM49.1205 84.232C49.1205 81.568 49.8165 79.696 51.0405 78.592C51.9045 77.824 53.0325 77.44 54.3525 77.44C55.6725 77.44 56.8005 77.824 57.6645 78.592C58.8885 79.696 59.5845 81.568 59.5845 84.232C59.5845 86.92 58.8885 88.792 57.6645 89.896C56.8005 90.664 55.6725 91.048 54.3525 91.048C53.0325 91.048 51.9045 90.664 51.0405 89.896C49.8165 88.792 49.1205 86.92 49.1205 84.232ZM65.6325 70.888V80.032H69.2085V81.28H65.6325V92.152H64.1685V70.888H65.6325ZM78.0635 71.032V74.944C78.0635 78.592 80.6315 80.8 83.3435 81.664V83.008C80.5115 82.192 78.2075 80.296 77.3195 78.184C76.5755 80.32 74.3195 82.384 71.2955 83.272V81.928C74.1275 80.992 76.5995 78.544 76.5995 74.944V71.032H78.0635ZM89.2715 85.672H87.8075V70.888H89.2715V85.672ZM89.7035 92.272H73.5515V85.528H75.0155V91H89.7035V92.272ZM108.352 83.704V72.52H105.184V89.464H107.92C108.232 87.928 108.352 85.72 108.352 83.704ZM103.768 89.464V72.52H101.968V71.272H111.424V72.52H109.744V83.08C109.744 85.336 109.624 87.832 109.288 89.464C110.368 89.44 111.52 89.272 112.384 88.864V90.064C111.52 90.496 110.176 90.664 108.976 90.664H101.704V89.464H103.768ZM110.944 81.088V79.768H113.68V71.008H115.072V91.912H113.68V81.088H110.944ZM119.488 92.152H118.072V70.888H119.488V92.152ZM134.511 80.944C134.511 77.2 134.103 74.512 132.903 73.168C132.327 72.52 131.535 72.16 130.551 72.16C129.591 72.16 128.799 72.52 128.199 73.168C127.023 74.512 126.615 77.2 126.615 80.944C126.615 84.712 127.023 87.424 128.199 88.768C128.799 89.392 129.591 89.728 130.551 89.728C131.535 89.728 132.327 89.392 132.903 88.768C134.103 87.424 134.511 84.712 134.511 80.944ZM125.151 80.944C125.151 76.864 125.655 73.888 127.143 72.28C127.959 71.368 129.135 70.888 130.551 70.888C131.967 70.888 133.119 71.368 133.959 72.28C135.471 73.888 135.975 76.864 135.975 80.944C135.975 85.024 135.471 88.024 133.959 89.632C133.119 90.568 131.967 90.952 130.551 90.952C129.135 90.952 127.959 90.568 127.143 89.632C125.655 88.024 125.151 85.024 125.151 80.944ZM140.727 92.128V70.888H142.191V92.128H140.727ZM148.19 71.296H159.542V72.592H154.55V79.96C154.55 85.216 157.19 88.12 159.71 89.368V90.688C156.926 89.536 154.646 86.992 153.83 84.208C153.038 87.016 150.638 89.608 147.926 90.688V89.368C150.398 88.192 153.086 85.216 153.086 79.96V72.592H148.19V71.296ZM163.766 92.128V70.888H165.23V92.128H163.766ZM179.893 75.76V72.616H171.277V71.296H181.333V75.616C181.333 83.776 177.997 88.984 171.109 90.784V89.464C176.941 87.76 179.893 83.08 179.893 75.76ZM187.765 70.888V80.032H191.341V81.28H187.765V92.152H186.301V70.888H187.765ZM206.438 84.016C205.742 87.04 203.246 89.56 200.27 90.688V89.344C203.03 88.096 205.694 85.552 205.694 79.696V71.152H207.158V79.696C207.158 85.552 209.846 88 212.582 89.344V90.688C209.654 89.488 207.134 87.04 206.438 84.016ZM217.742 70.888V80.032H221.318V81.28H217.742V92.152H216.278V70.888H217.742ZM233.437 90.664H224.293V80.224H232.453V72.592H224.293V71.272H233.917V81.544H225.757V89.392H233.629C235.981 89.392 238.093 88.72 239.317 87.544V70.888H240.781V80.032H244.357V81.28H240.781V92.152H239.317V88.792C238.189 90.016 235.909 90.664 233.437 90.664ZM247.308 71.176H257.82V72.448H253.38V74.656C253.38 78.208 255.876 80.224 258.3 80.848V82.192C255.732 81.592 253.572 79.888 252.684 77.824C251.82 79.96 249.636 81.904 246.972 82.456V81.16C249.564 80.56 251.916 78.304 251.916 74.656V72.448H247.308V71.176ZM264.42 82.768H262.956V78.856H258.348V77.608H262.956V74.992H258.348V73.792H262.956V70.888H264.42V82.768ZM256.644 92.44C254.916 91.696 253.188 90.04 252.492 88.48C251.796 90.04 249.828 91.744 247.596 92.44V91.144C249.636 90.4 251.724 88.24 251.724 85.576V84.496H253.188V85.552C253.188 87.952 254.916 90.088 256.62 91.048C258.372 90.088 260.124 87.952 260.124 85.552V84.496H261.588V85.576C261.588 88.24 263.58 90.352 265.74 91.144V92.44C263.508 91.744 261.54 90.064 260.82 88.48C260.148 90.04 258.468 91.6 256.644 92.44ZM278.939 75.76V72.616H270.563V71.296H280.403V75.616C280.403 77.08 280.307 78.472 280.091 79.744H285.899V70.888H287.363V92.152H285.899V81.04H279.827C278.603 86.08 275.531 89.44 270.419 90.784V89.464C276.059 87.76 278.939 83.008 278.939 75.76ZM302.218 90.664H293.41V71.152H294.874V89.392H302.386C304.858 89.392 307.09 88.672 308.434 87.4V70.888H309.898V80.032H313.474V81.28H309.898V92.152H308.434V88.624C307.21 89.944 304.81 90.664 302.218 90.664ZM316.185 93.976C317.673 93.688 318.297 92.872 318.297 91.216V88.336H316.521V90.928H317.337V91.36C317.337 92.392 316.953 92.872 316.185 93.064V93.976ZM330.34 71.176H341.02V72.424H336.436V73.576C336.436 77.008 338.908 78.88 341.404 79.456V80.776C338.788 80.176 336.628 78.664 335.716 76.672C334.852 78.712 332.668 80.512 330.004 81.064V79.744C332.572 79.192 334.972 77.056 334.972 73.576V72.424H330.34V71.176ZM347.14 70.888V75.184H350.5V76.48H347.14V81.112H345.676V70.888H347.14ZM333.1 88.312V91.216H347.428V92.416H331.636V87.112H345.676V84.184H331.636V82.984H347.14V88.312H333.1ZM370.635 78.28H363.243V81.88H372.123V83.128H352.947V81.88H361.779V78.28H354.435V71.176H370.635V78.28ZM369.171 77.056V72.424H355.899V77.056H369.171ZM362.523 88.552C361.035 90.736 357.339 92.224 353.571 92.416V91.12C357.315 90.88 361.779 89.008 361.779 86.2V85.528H363.243V86.2C363.243 89.008 367.707 90.88 371.475 91.12V92.416C367.659 92.224 363.987 90.688 362.523 88.552ZM387.794 72.448H378.626V77.512H387.914V78.784H383.306V82.528H387.338C389.522 82.528 391.322 82.096 392.354 81.352V70.864H393.818V86.488H392.354V82.6C391.25 83.44 389.474 83.8 387.026 83.8H375.914V82.528H381.842V78.784H377.186V71.176H387.794V72.448ZM394.25 92.368H378.098V86.536H379.562V91.12H394.25V92.368ZM415.155 72.448H406.707V71.176H416.619V72.136C416.619 78.616 412.395 81.832 406.131 82.432V81.16C411.531 80.584 415.155 77.752 415.155 72.448ZM417.363 74.824V73.552H422.331V70.888H423.795V83.056H422.331V79.408H417.075V78.16H422.331V74.824H417.363ZM415.995 92.704C413.283 92.704 410.907 92.296 409.395 91.312C408.339 90.616 407.715 89.656 407.715 88.384C407.715 87.112 408.339 86.176 409.395 85.456C410.907 84.472 413.283 84.04 415.995 84.04C418.707 84.04 421.083 84.472 422.595 85.456C423.651 86.176 424.299 87.112 424.299 88.384C424.299 89.656 423.651 90.616 422.595 91.312C421.083 92.296 418.707 92.704 415.995 92.704ZM415.995 85.288C413.595 85.288 411.483 85.696 410.283 86.488C409.587 86.968 409.179 87.592 409.179 88.384C409.179 89.152 409.587 89.776 410.283 90.256C411.483 91.072 413.595 91.456 415.995 91.456C418.395 91.456 420.483 91.072 421.707 90.256C422.427 89.776 422.835 89.152 422.835 88.384C422.835 87.592 422.427 86.968 421.707 86.488C420.483 85.696 418.395 85.288 415.995 85.288ZM431.762 78.52V83.176H447.146V84.448H439.37V89.944H448.058V91.168H429.122V89.944H437.906V84.448H430.298V77.248H445.418V72.592H430.298V71.296H446.882V78.52H431.762ZM454.993 75.592V77.872H469.873V79H453.529V74.488H468.265V72.328H453.529V71.176H469.729V75.592H454.993ZM452.041 82.384V81.208H471.217V82.384H452.041ZM454.993 89.056V91.336H470.281V92.416H453.529V87.952H468.265V85.816H453.529V84.664H469.729V89.056H454.993ZM492.074 80.944C492.074 77.2 491.666 74.512 490.466 73.168C489.89 72.52 489.098 72.16 488.114 72.16C487.154 72.16 486.362 72.52 485.762 73.168C484.586 74.512 484.178 77.2 484.178 80.944C484.178 84.712 484.586 87.424 485.762 88.768C486.362 89.392 487.154 89.728 488.114 89.728C489.098 89.728 489.89 89.392 490.466 88.768C491.666 87.424 492.074 84.712 492.074 80.944ZM482.714 80.944C482.714 76.864 483.218 73.888 484.706 72.28C485.522 71.368 486.698 70.888 488.114 70.888C489.53 70.888 490.682 71.368 491.522 72.28C493.034 73.888 493.538 76.864 493.538 80.944C493.538 85.024 493.034 88.024 491.522 89.632C490.682 90.568 489.53 90.952 488.114 90.952C486.698 90.952 485.522 90.568 484.706 89.632C483.218 88.024 482.714 85.024 482.714 80.944ZM498.29 92.128V70.888H499.754V92.128H498.29ZM506.137 74.656C506.137 73.648 506.569 72.856 507.433 72.28C508.849 71.296 511.369 70.888 514.681 70.888C517.969 70.888 520.513 71.296 521.929 72.28C522.769 72.856 523.225 73.648 523.225 74.656C523.225 75.664 522.769 76.456 521.929 77.032C521.305 77.44 520.489 77.776 519.481 77.992V81.304H524.233V82.6H505.057V81.304H509.905V77.992C508.873 77.776 508.057 77.464 507.433 77.032C506.569 76.456 506.137 75.664 506.137 74.656ZM518.041 78.232C517.033 78.352 515.905 78.424 514.681 78.424C513.457 78.424 512.329 78.376 511.345 78.232V81.304H518.041V78.232ZM507.601 74.656C507.601 75.232 507.889 75.712 508.441 76.072C509.545 76.816 511.705 77.176 514.681 77.176C517.657 77.176 519.817 76.816 520.921 76.072C521.497 75.712 521.761 75.232 521.761 74.656C521.761 74.08 521.497 73.6 520.921 73.24C519.817 72.472 517.657 72.136 514.681 72.136C511.705 72.136 509.545 72.472 508.441 73.24C507.889 73.6 507.601 74.08 507.601 74.656ZM506.137 89.056C506.137 88 506.617 87.16 507.625 86.584C509.065 85.696 511.441 85.24 514.681 85.24C517.921 85.24 520.297 85.696 521.713 86.584C522.721 87.16 523.225 88 523.225 89.056C523.225 90.112 522.721 90.952 521.713 91.552C520.297 92.44 517.921 92.824 514.681 92.824C511.441 92.824 509.065 92.44 507.625 91.552C506.617 90.952 506.137 90.112 506.137 89.056ZM507.601 89.056C507.601 89.632 507.889 90.136 508.489 90.496C509.593 91.216 511.705 91.576 514.681 91.576C517.657 91.576 519.769 91.216 520.873 90.496C521.497 90.136 521.761 89.632 521.761 89.056C521.761 88.48 521.497 88 520.873 87.568C519.769 86.896 517.657 86.536 514.681 86.536C511.705 86.536 509.593 86.896 508.489 87.568C507.889 88 507.601 88.48 507.601 89.056ZM527.88 74.944V73.624H533.256V70.216H534.72V73.624H540.144V74.944H527.88ZM530.28 84.232C530.28 86.392 530.736 87.952 531.624 88.864C532.248 89.488 533.064 89.776 534.048 89.776C535.032 89.776 535.848 89.488 536.472 88.864C537.36 87.952 537.816 86.392 537.816 84.232C537.816 82.072 537.36 80.512 536.472 79.624C535.848 79 535.032 78.688 534.048 78.688C533.064 78.688 532.248 79 531.624 79.624C530.736 80.512 530.28 82.072 530.28 84.232ZM528.816 84.232C528.816 81.568 529.512 79.696 530.736 78.592C531.6 77.824 532.728 77.44 534.048 77.44C535.368 77.44 536.496 77.824 537.36 78.592C538.584 79.696 539.28 81.568 539.28 84.232C539.28 86.92 538.584 88.792 537.36 89.896C536.496 90.664 535.368 91.048 534.048 91.048C532.728 91.048 531.6 90.664 530.736 89.896C529.512 88.792 528.816 86.92 528.816 84.232ZM545.328 70.888V80.032H548.904V81.28H545.328V92.152H543.864V70.888H545.328ZM557.759 71.032V73.984C557.759 77.632 560.327 79.84 563.039 80.728V82.048C560.207 81.232 557.903 79.336 557.015 77.224C556.271 79.36 554.015 81.448 550.991 82.312V80.968C553.823 80.08 556.295 77.584 556.295 73.984V71.032H557.759ZM568.967 82.768H567.503V78.304H562.319V77.056H567.503V74.368H562.319V73.12H567.503V70.888H568.967V82.768ZM561.191 92.44C559.463 91.696 557.735 90.04 557.039 88.48C556.343 90.04 554.375 91.744 552.143 92.44V91.144C554.183 90.4 556.271 88.24 556.271 85.576V84.496H557.735V85.552C557.735 87.952 559.463 90.088 561.167 91.048C562.919 90.088 564.671 87.952 564.671 85.552V84.496H566.135V85.576C566.135 88.24 568.127 90.352 570.287 91.144V92.44C568.055 91.744 566.087 90.064 565.367 88.48C564.695 90.04 563.015 91.6 561.191 92.44ZM590.422 74.632V72.472H575.494V71.176H591.886V74.608C591.886 76.024 591.694 77.656 591.358 78.88H589.918C590.254 77.656 590.422 76.024 590.422 74.632ZM574.174 82.144V80.848H593.35V82.144H584.758V87.232H583.294V82.144H574.174ZM577.126 85.912V91H592.294V92.272H575.662V85.912H577.126ZM598.029 77.248C598.029 75.424 598.749 73.96 600.045 72.904C601.557 71.656 603.885 71.032 606.813 71.032C609.741 71.032 612.069 71.656 613.581 72.904C614.877 73.96 615.597 75.424 615.597 77.248C615.597 79.072 614.877 80.536 613.581 81.592C613.053 82.048 612.405 82.408 611.661 82.696V89.944H616.269V91.168H597.333V89.944H602.061V82.744C601.293 82.456 600.597 82.072 600.045 81.592C598.749 80.536 598.029 79.072 598.029 77.248ZM610.197 83.152C609.189 83.368 608.061 83.488 606.813 83.488C605.613 83.488 604.509 83.392 603.525 83.176V89.944H610.197V83.152ZM599.493 77.248C599.493 78.664 600.069 79.768 601.053 80.608C602.325 81.664 604.317 82.192 606.813 82.192C609.309 82.192 611.301 81.664 612.597 80.608C613.581 79.768 614.133 78.664 614.133 77.248C614.133 75.856 613.581 74.728 612.597 73.888C611.301 72.832 609.309 72.328 606.813 72.328C604.317 72.328 602.325 72.832 601.053 73.888C600.069 74.728 599.493 75.856 599.493 77.248ZM622.844 88.336H621.068V90.904H622.844V88.336Z" fill="#333333"/>
</svg>
