<svg width="269" height="60" viewBox="0 0 269 60" fill="none" xmlns="http://www.w3.org/2000/svg">
<rect x="0.5" y="0.5" width="268" height="59" rx="29.5" stroke="#FF5439"/>
<path d="M53.5151 25.752C53.5151 24.888 53.9471 24.216 54.8351 23.736C56.1791 22.968 58.5791 22.608 61.8911 22.608C65.1791 22.608 67.6271 22.944 68.9711 23.736C69.8351 24.216 70.2671 24.888 70.2671 25.752C70.2671 26.616 69.8111 27.288 68.8991 27.768C67.6991 28.44 65.7311 28.776 63.1391 28.848V30.312H71.6831V32.448H52.0751V30.312H60.5471V28.848C58.0271 28.776 56.1551 28.416 54.9551 27.792C54.0191 27.312 53.5151 26.616 53.5151 25.752ZM56.1071 25.752C56.1071 26.016 56.2991 26.232 56.6831 26.4C57.4991 26.784 59.2511 26.976 61.8911 26.976C64.5311 26.976 66.2591 26.832 67.0751 26.424C67.4591 26.256 67.6511 26.016 67.6511 25.752C67.6511 25.44 67.4351 25.2 67.0271 25.032C66.1871 24.672 64.4831 24.504 61.8911 24.504C59.2511 24.504 57.4751 24.648 56.6591 25.056C56.2991 25.224 56.1071 25.464 56.1071 25.752ZM70.9151 19.56V21.552H52.8431V19.56H60.5231V17.88H63.1871V19.56H70.9151ZM70.2671 40.632H53.5151V34.056H70.2671V40.632ZM67.6511 38.52V36.168H56.1071V38.52H67.6511ZM75.9062 25.464C75.9062 23.328 76.8182 21.528 78.3542 20.424C79.9382 19.272 82.2182 18.792 84.9302 18.792C87.6662 18.792 89.9222 19.272 91.5302 20.424C93.0422 21.528 93.9782 23.328 93.9782 25.464C93.9782 27.576 93.0422 29.352 91.5302 30.456C89.9222 31.632 87.6662 32.112 84.9302 32.112C82.2182 32.112 79.9382 31.632 78.3542 30.456C76.8182 29.352 75.9062 27.576 75.9062 25.464ZM78.5222 25.464C78.5222 26.736 79.0262 27.816 79.9142 28.512C81.0182 29.352 82.7462 29.832 84.9302 29.832C87.1382 29.832 88.8662 29.352 89.9702 28.512C90.8582 27.816 91.3622 26.736 91.3622 25.464C91.3622 24.144 90.8582 23.064 89.9702 22.368C88.8662 21.528 87.1382 21.072 84.9302 21.072C82.7462 21.072 81.0182 21.528 79.9142 22.368C79.0262 23.064 78.5222 24.144 78.5222 25.464ZM75.2582 39.456V37.2H94.5782V39.456H75.2582ZM102.041 27.072V30.624H116.753V32.88H109.313V37.2H117.617V39.456H98.2972V37.2H106.721V32.88H99.4252V24.816H113.873V21.336H99.4252V19.032H116.489V27.072H102.041ZM146.369 21.072H132.209V23.352H146.489V25.512H139.241V27.336H147.785V29.52H128.177V27.336H136.649V25.512H129.617V18.912H146.369V21.072ZM132.209 36.936V38.52H146.849V40.632H129.617V34.848H143.753V33.24H129.617V31.128H146.369V36.936H132.209ZM160.336 28.944C160.336 25.488 160.072 22.968 159.208 21.816C158.752 21.216 158.08 20.904 157.312 20.904C156.52 20.904 155.848 21.216 155.416 21.816C154.504 22.968 154.288 25.488 154.288 28.944C154.288 32.4 154.504 34.92 155.416 36.096C155.848 36.648 156.52 36.96 157.312 36.96C158.08 36.96 158.752 36.648 159.208 36.096C160.072 34.92 160.336 32.4 160.336 28.944ZM151.696 28.944C151.696 25.008 152.08 22.056 153.448 20.352C154.36 19.248 155.68 18.648 157.312 18.648C158.92 18.648 160.264 19.248 161.152 20.352C162.544 22.056 162.928 25.008 162.928 28.944C162.928 32.88 162.544 35.832 161.152 37.536C160.264 38.64 158.92 39.192 157.312 39.192C155.68 39.192 154.36 38.64 153.448 37.536C152.08 35.832 151.696 32.88 151.696 28.944ZM168.952 18.648V27.528H172.36V29.808H168.952V40.416H166.336V18.648H168.952ZM182.943 23.736V21.336H174.975V19.032H185.535V23.424C185.535 31.728 182.367 37.224 174.855 39.144V36.672C180.447 35.064 182.943 30.552 182.943 23.736ZM191.991 18.648V27.528H195.399V29.808H191.991V40.416H189.375V18.648H191.991ZM206.054 23.736V21.336H198.182V19.032H208.622V23.424C208.622 31.704 205.55 37.224 198.038 39.144V36.672C203.558 35.064 206.054 30.528 206.054 23.736ZM215.558 18.648V40.416H212.942V18.648H215.558Z" fill="#FF5439"/>
</svg>
