<svg width="502" height="98" viewBox="0 0 502 98" fill="none" xmlns="http://www.w3.org/2000/svg">
<path d="M13.2608 12.804V4.74H9.62478V12.804H13.2608ZM7.42878 12.804V4.74H3.79278V12.804H7.42878ZM19.6331 11.256C19.6331 8.088 20.6411 5.676 22.4411 4.128C23.8451 2.904 25.8251 2.256 28.1651 2.256C30.5771 2.256 32.4851 2.904 33.9251 4.128C35.7611 5.676 36.7331 8.088 36.7331 11.256C36.7331 14.424 35.7611 16.872 33.9251 18.42C32.4851 19.608 30.5771 20.292 28.1651 20.292C25.8251 20.292 23.8451 19.608 22.4411 18.42C20.6411 16.872 19.6331 14.424 19.6331 11.256ZM23.4491 11.256C23.4491 13.308 24.0251 14.82 25.0331 15.756C25.8251 16.512 26.8691 16.944 28.1651 16.944C29.4971 16.944 30.5771 16.512 31.3331 15.756C32.3771 14.82 32.9171 13.308 32.9171 11.256C32.9171 9.276 32.3771 7.728 31.3331 6.756C30.5771 6.036 29.4971 5.64 28.1651 5.64C26.8691 5.64 25.8251 6.036 25.0331 6.756C24.0251 7.728 23.4491 9.276 23.4491 11.256ZM45.9491 2.472V10.392H50.7011V13.812H45.9491V22.92H42.0251V2.472H45.9491ZM34.0331 29.832C31.5131 32.676 27.0851 34.944 20.9651 35.484V32.136C27.6611 31.272 32.0891 28.212 32.0891 23.856V22.344H36.0131V23.856C36.0131 28.212 40.3691 31.272 47.1371 32.136V35.484C41.0171 34.944 36.5891 32.676 34.0331 29.832ZM58.9797 4.74H54.9477V9.672L55.3437 25.152H58.5837L58.9797 9.672V4.74ZM59.0157 28.752H54.9117V32.964H59.0157V28.752ZM89.5631 16.152V6.504H76.9991V3.048H93.4511V15.576C93.4511 18.528 93.1631 22.092 92.6591 24.288H88.8071C89.2751 22.092 89.5631 18.888 89.5631 16.152ZM80.5991 29.904V15.036H84.4871V29.904H91.7591C94.6751 29.904 96.9431 29.328 98.2751 28.212V2.472H102.199V15.792H107.311V19.212H102.199V35.124H98.2751V31.452C96.9431 32.676 94.2791 33.288 91.0031 33.288H75.9191V29.904H80.5991ZM115.986 15.108V20.436H138.054V23.82H126.894V30.3H139.35V33.684H110.37V30.3H123.006V23.82H112.062V11.724H133.734V6.504H112.062V3.048H137.658V15.108H115.986ZM150.544 15.108V20.436H172.612V23.82H161.452V30.3H173.908V33.684H144.928V30.3H157.564V23.82H146.62V11.724H168.292V6.504H146.62V3.048H172.216V15.108H150.544ZM190.395 6.252V2.868H207.279V6.252H200.799V7.476C200.799 13.02 203.787 15.648 207.855 16.548V20.004C203.967 19.32 200.619 17.268 198.927 14.496C197.199 17.304 193.815 19.788 189.819 20.436V16.944C193.995 16.044 196.875 13.128 196.875 7.476V6.252H190.395ZM216.351 2.472V9.816H221.103V13.236H216.351V20.688H212.427V2.472H216.351ZM192.267 35.448V22.776H216.351V35.448H192.267ZM212.427 26.124H196.155V32.136H212.427V26.124ZM233.63 24.792C232.19 28.536 228.374 31.56 224.198 32.928V29.328C228.122 27.528 231.686 24.216 231.686 15.108V2.868H235.574V15.108C235.574 24.216 239.138 27.492 243.026 29.328V32.928C238.922 31.524 235.106 28.5 233.63 24.792ZM251.702 2.472V35.124H247.778V2.472H251.702ZM280.213 12.696C278.485 15.396 275.029 17.88 270.637 19.14V15.684C274.885 14.136 278.161 11.04 278.161 6.288V2.868H282.085V6.288C282.085 11.04 285.361 13.848 289.645 15.288V18.708C285.397 17.592 281.977 15.36 280.213 12.696ZM293.209 20.544V2.472H297.133V35.124H293.209V23.748C291.805 24.9 289.393 25.512 285.793 25.512H281.293V35.16H277.369V25.512H269.665V22.092H286.801C289.609 22.092 291.769 21.624 293.209 20.544ZM309.948 2.688V10.68H331.368V14.064H306.06V2.688H309.948ZM303.9 21.804V18.42H333.312V21.804H303.9ZM309.948 24.864V31.884H331.764V35.268H306.06V24.864H309.948ZM376.223 6.18H365.567C366.035 9.42 371.507 11.22 376.547 11.616V14.928C371.327 14.568 366.215 12.876 363.623 10.068C360.995 12.876 355.847 14.604 350.627 14.928V11.616C355.667 11.292 361.139 9.42 361.607 6.18H351.095V2.868H376.223V6.18ZM348.935 20.652V17.304H378.347V20.652H365.531V23.676C369.311 23.784 372.299 24.36 374.243 25.476C375.935 26.484 376.871 27.852 376.871 29.868C376.871 31.884 375.935 33.252 374.243 34.26C371.975 35.556 368.375 36.06 363.695 36.06C359.051 36.06 355.379 35.556 353.111 34.26C351.419 33.252 350.483 31.884 350.483 29.868C350.483 27.852 351.419 26.484 353.111 25.476C355.055 24.36 357.971 23.82 361.679 23.676V20.652H348.935ZM354.407 29.868C354.407 30.588 354.803 31.2 355.523 31.632C356.999 32.46 359.735 32.784 363.695 32.784C367.655 32.784 370.391 32.46 371.831 31.632C372.587 31.2 372.983 30.588 372.983 29.868C372.983 29.148 372.587 28.572 371.831 28.104C370.391 27.276 367.655 26.952 363.695 26.952C359.735 26.952 356.999 27.276 355.523 28.104C354.803 28.572 354.407 29.148 354.407 29.868ZM384.142 10.68C384.142 7.728 385.258 5.496 387.058 4.056C388.534 2.904 390.478 2.256 392.71 2.256C394.978 2.256 396.922 2.904 398.362 4.056C400.198 5.496 401.277 7.728 401.277 10.68C401.277 13.668 400.198 15.9 398.362 17.304C396.922 18.492 394.978 19.14 392.71 19.14C390.478 19.14 388.534 18.492 387.058 17.304C385.258 15.9 384.142 13.668 384.142 10.68ZM387.958 10.68C387.958 12.372 388.534 13.776 389.542 14.604C390.334 15.36 391.45 15.756 392.71 15.756C393.97 15.756 395.086 15.36 395.914 14.604C396.922 13.776 397.462 12.372 397.462 10.68C397.462 8.988 396.922 7.656 395.914 6.756C395.086 6.036 393.97 5.64 392.71 5.64C391.45 5.64 390.334 6.036 389.542 6.756C388.534 7.656 387.958 8.988 387.958 10.68ZM410.962 19.608H407.038V2.472H410.962V19.608ZM407.038 25.26V21.444H410.962V35.448H386.554V21.444H390.478V25.26H407.038ZM407.038 28.608H390.478V32.136H407.038V28.608ZM433.856 32.928H419.384V2.868H423.272V29.508H434.576C437.636 29.508 440.084 28.824 441.524 27.564V2.472H445.448V35.124H441.524V30.732C440.156 32.136 437.276 32.928 433.856 32.928ZM467.839 32.928H453.691V3.048H469.423V6.504H457.579V29.508H468.559C471.547 29.508 473.923 28.86 475.291 27.636V2.472H479.215V15.792H484.327V19.212H479.215V35.124H475.291V30.876C473.959 32.172 471.151 32.928 467.839 32.928ZM487.457 11.184V9.204C489.257 9.132 489.797 8.232 489.797 6.432H487.637V1.608H492.065V6.684C492.065 9.348 490.481 11.004 487.457 11.184ZM494.081 11.184V9.204C495.881 9.132 496.421 8.232 496.421 6.432H494.261V1.608H498.689V6.684C498.689 9.348 497.105 11.004 494.081 11.184Z" fill="#333333"/>
<path d="M99.0227 70.192H100.487V73.024H105.815V74.272H93.7187V73.024H99.0227V70.192ZM95.8307 81.04C95.8307 82 96.2387 82.792 96.8867 83.392C97.6067 84.064 98.6387 84.424 99.7907 84.424C100.943 84.424 101.975 84.064 102.695 83.392C103.343 82.792 103.751 82 103.751 81.04C103.751 80.056 103.343 79.264 102.695 78.664C101.975 77.992 100.943 77.632 99.7907 77.632C98.6387 77.632 97.6067 77.992 96.8867 78.664C96.2387 79.264 95.8307 80.056 95.8307 81.04ZM94.3907 81.04C94.3907 79.648 94.9667 78.496 95.9027 77.68C96.8867 76.864 98.2787 76.384 99.7907 76.384C101.303 76.384 102.695 76.864 103.679 77.68C104.615 78.496 105.191 79.648 105.191 81.04C105.191 82.408 104.615 83.56 103.679 84.376C102.839 85.072 101.735 85.504 100.487 85.648V89.656H103.727C105.959 89.656 108.047 89.272 109.415 88.144V70.888H110.879V92.152H109.415V89.368C108.167 90.448 105.911 90.88 103.247 90.88H93.3347V89.656H99.0227V85.624C97.8227 85.504 96.7187 85.048 95.9027 84.376C94.9667 83.56 94.3907 82.408 94.3907 81.04ZM119.134 73.864H132.406V71.176H133.87V79.456H126.478V82.528H135.358V83.8H116.182V82.528H125.014V79.456H117.67V71.176H119.134V73.864ZM132.406 78.208V75.112H119.134V78.208H132.406ZM132.406 92.536V88.168H117.502V86.92H133.87V92.536H132.406ZM148.557 74.92H139.557V73.624H143.373V70.192H144.837V73.624H148.557V74.92ZM141.453 84.184C141.453 86.824 141.885 88.456 142.677 89.224C143.061 89.632 143.565 89.8 144.117 89.8C144.669 89.8 145.149 89.632 145.557 89.224C146.325 88.456 146.781 86.824 146.781 84.184C146.781 81.544 146.325 79.936 145.557 79.144C145.149 78.736 144.669 78.568 144.117 78.568C143.565 78.568 143.061 78.736 142.677 79.144C141.885 79.936 141.453 81.544 141.453 84.184ZM140.037 84.184C140.037 81.112 140.661 79.096 141.861 78.088C142.485 77.56 143.229 77.296 144.117 77.296C145.005 77.296 145.773 77.56 146.373 78.088C147.573 79.096 148.197 81.112 148.197 84.184C148.197 87.28 147.573 89.272 146.373 90.304C145.773 90.808 145.005 91.048 144.117 91.048C143.229 91.048 142.485 90.808 141.861 90.304C140.661 89.272 140.037 87.28 140.037 84.184ZM157.293 92.152H155.877V81.184H152.493V91.912H151.077V71.008H152.493V79.864H155.877V70.888H157.293V92.152ZM168.308 84.016C167.612 87.04 165.14 89.56 162.164 90.688V89.344C164.9 88.096 167.564 85.552 167.564 79.696V71.152H169.028V79.696C169.028 85.552 171.74 88 174.452 89.344V90.688C171.524 89.488 169.004 87.04 168.308 84.016ZM179.996 70.888V92.152H178.532V80.224H173.012V78.928H178.532V70.888H179.996ZM208.484 74.968V72.472H193.556V71.176H209.948V74.92C209.948 76.096 209.828 77.536 209.54 78.592H208.1C208.388 77.536 208.484 76.12 208.484 74.968ZM192.236 81.664V80.392H211.412V81.664H192.236ZM209.924 92.416H193.724V85.216H209.924V92.416ZM208.46 91.192V86.464H195.188V91.192H208.46ZM217.147 74.968H224.299V71.176H225.763V81.832H215.707V71.176H217.147V74.968ZM224.299 80.536V76.216H217.147V80.536H224.299ZM232.507 70.888V76.12H235.867V77.416H232.507V83.248H231.043V70.888H232.507ZM216.715 88.528C216.715 87.304 217.267 86.368 218.275 85.696C219.691 84.76 221.995 84.28 224.899 84.28C227.779 84.28 230.083 84.76 231.523 85.696C232.531 86.368 233.059 87.304 233.059 88.528C233.059 89.728 232.531 90.664 231.523 91.336C230.083 92.272 227.779 92.704 224.899 92.704C221.995 92.704 219.691 92.272 218.275 91.336C217.267 90.664 216.715 89.728 216.715 88.528ZM218.179 88.528C218.179 89.224 218.515 89.8 219.163 90.28C220.243 91.048 222.235 91.456 224.899 91.456C227.539 91.456 229.531 91.048 230.635 90.28C231.259 89.8 231.595 89.224 231.595 88.528C231.595 87.808 231.259 87.208 230.635 86.752C229.531 85.984 227.539 85.576 224.899 85.576C222.235 85.576 220.243 85.984 219.163 86.752C218.515 87.208 218.179 87.808 218.179 88.528ZM262.94 72.4H248.204V75.928H263.06V77.152H255.548V79.936H264.428V81.184H245.252V79.936H254.084V77.152H246.74V71.176H262.94V72.4ZM248.204 88.696V91.216H263.492V92.416H246.74V87.496H261.476V84.928H246.74V83.728H262.94V88.696H248.204ZM278.155 80.944C278.155 77.2 277.723 74.512 276.523 73.168C275.947 72.52 275.155 72.16 274.171 72.16C273.187 72.16 272.395 72.52 271.819 73.168C270.619 74.512 270.235 77.2 270.235 80.944C270.235 84.712 270.619 87.424 271.819 88.768C272.395 89.392 273.187 89.728 274.171 89.728C275.155 89.728 275.947 89.392 276.523 88.768C277.723 87.424 278.155 84.712 278.155 80.944ZM268.771 80.944C268.771 76.864 269.299 73.888 270.787 72.28C271.603 71.368 272.755 70.888 274.171 70.888C275.611 70.888 276.763 71.368 277.579 72.28C279.067 73.888 279.595 76.864 279.595 80.944C279.595 85.024 279.067 88.024 277.579 89.632C276.763 90.568 275.611 90.952 274.171 90.952C272.755 90.952 271.603 90.568 270.787 89.632C269.299 88.024 268.771 85.024 268.771 80.944ZM285.523 70.888V80.032H289.099V81.28H285.523V92.152H284.059V70.888H285.523ZM292.146 77.248C292.146 75.424 292.866 73.96 294.162 72.904C295.674 71.656 298.002 71.032 300.93 71.032C303.858 71.032 306.186 71.656 307.698 72.904C308.994 73.96 309.714 75.424 309.714 77.248C309.714 79.072 308.994 80.536 307.698 81.592C306.33 82.744 304.266 83.368 301.698 83.464V89.944H310.386V91.168H291.45V89.944H300.234V83.464C297.642 83.392 295.554 82.768 294.162 81.592C292.866 80.536 292.146 79.072 292.146 77.248ZM293.61 77.248C293.61 78.664 294.186 79.768 295.17 80.608C296.442 81.664 298.434 82.192 300.93 82.192C303.426 82.192 305.418 81.664 306.714 80.608C307.698 79.768 308.25 78.664 308.25 77.248C308.25 75.856 307.698 74.728 306.714 73.888C305.418 72.832 303.426 72.328 300.93 72.328C298.434 72.328 296.442 72.832 295.17 73.888C294.186 74.728 293.61 75.856 293.61 77.248ZM321.401 72.448H314.945V71.176H322.817V72.064C322.817 73.456 322.649 74.728 322.337 75.856H326.321V71.008H327.737V82.6H326.321V77.152H321.881C320.633 80.056 318.137 81.904 314.417 82.672V81.4C318.713 80.416 321.377 77.512 321.401 72.448ZM331.097 82.72V70.888H332.537V82.72H331.097ZM324.305 92.44C322.553 91.696 320.825 90.04 320.153 88.48C319.457 90.04 317.441 91.72 315.185 92.44V91.144C317.273 90.4 319.409 88.24 319.409 85.576V84.544H320.873V85.552C320.873 87.952 322.553 90.088 324.305 91.048C326.033 90.088 327.737 87.952 327.737 85.552V84.544H329.201V85.576C329.201 88.24 331.289 90.352 333.425 91.144V92.44C331.193 91.72 329.177 90.064 328.433 88.48C327.785 90.04 326.129 91.6 324.305 92.44ZM346.96 74.152C345.496 76.288 341.92 77.8 338.032 78.28V76.936C341.848 76.48 346.24 74.608 346.24 71.608V71.008H347.704V71.608C347.704 74.608 351.904 76.408 355.936 76.936V78.28C351.904 77.776 348.472 76.264 346.96 74.152ZM337.408 81.952V80.704H356.584V81.952H337.408ZM338.896 84.352H340.36V86.896H353.632V84.352H355.096V92.416H338.896V84.352ZM353.632 91.192V88.144H340.36V91.192H353.632ZM370.455 90.664H361.383V71.152H362.847V89.392H370.695C373.143 89.392 375.375 88.672 376.719 87.4V70.888H378.183V92.128H376.719V88.624C375.471 89.944 373.119 90.664 370.455 90.664ZM393.374 90.664H384.23V71.272H394.142V72.592H385.694V89.392H393.566C395.918 89.392 398.03 88.72 399.254 87.544V70.888H400.718V80.032H404.294V81.28H400.718V92.152H399.254V88.792C398.126 90.016 395.846 90.664 393.374 90.664ZM408.829 85.48L408.973 75.52V72.256H407.437V75.52L407.557 85.48H408.829ZM408.997 88.48H407.389V90.904H408.997V88.48Z" fill="#333333"/>
</svg>
