<svg width="144" height="105" viewBox="0 0 144 105" fill="none" xmlns="http://www.w3.org/2000/svg">
<path d="M21.2331 24.9982C20.8922 24.9982 20.5342 24.8788 20.1591 24.6402C19.8011 24.4015 19.4772 24.1372 19.1874 23.8474C18.8976 23.5746 18.6419 23.2678 18.4202 22.9268C18.2156 22.6029 18.1133 22.3216 18.1133 22.0829V14.7693H21.5656V17.0964H29.5953V14.7693H33.0475V23.1314C33.0475 23.7281 32.8941 24.1884 32.5872 24.5123C32.2974 24.8362 31.8371 24.9982 31.2063 24.9982H21.2331ZM23.1255 1.65075H26.5266V10.9079C26.5266 11.5045 26.3732 11.9819 26.0663 12.3399C25.7765 12.6809 25.3247 12.8514 24.711 12.8514H18.0622C17.7213 12.8514 17.3632 12.732 16.9882 12.4934C16.6301 12.2547 16.3062 11.9904 16.0164 11.7006C15.7266 11.4278 15.4709 11.1295 15.2492 10.8056C15.0447 10.4647 14.9424 10.1748 14.9424 9.93614V1.65075H18.3435V4.41255H23.1255V1.65075ZM29.851 1.44617H33.3288V5.53772H37.1902V8.47853H33.3288V12.7491C33.3288 13.0559 33.1754 13.269 32.8685 13.3884C32.5616 13.4907 32.1354 13.5418 31.5899 13.5418C31.0444 13.5418 30.6181 13.4907 30.3113 13.3884C30.0044 13.269 29.851 13.0559 29.851 12.7491V1.44617ZM29.5953 22.1085V19.9349H21.5656V21.7249C21.5656 21.9806 21.6764 22.1085 21.898 22.1085H29.5953ZM18.3435 9.6037C18.3435 9.85942 18.4543 9.98728 18.6759 9.98728H23.1255V7.27663H18.3435V9.6037ZM38.2051 15.7922V13.0048H59.3789C59.7199 13.0048 59.9329 13.1156 60.0182 13.3372C60.1205 13.5589 60.1717 13.9169 60.1717 14.4113C60.1717 14.9056 60.1205 15.2637 60.0182 15.4853C59.9329 15.6899 59.7199 15.7922 59.3789 15.7922H38.2051ZM44.1379 24.7424C43.848 24.7424 43.5326 24.6317 43.1917 24.41C42.8507 24.1883 42.5438 23.9326 42.2711 23.6428C42.0154 23.3871 41.7852 23.1058 41.5807 22.799C41.3761 22.4921 41.2738 22.2193 41.2738 21.9806V17.4544H44.7516V21.1879C44.7516 21.6311 44.9476 21.8528 45.3398 21.8528H56.4381C56.7279 21.8528 56.9069 21.9806 56.9751 22.2364C57.0603 22.5092 57.103 22.8672 57.103 23.3104C57.103 23.7878 57.0603 24.1458 56.9751 24.3844C56.9069 24.6231 56.7279 24.7424 56.4381 24.7424H44.1379ZM52.1676 6.12588C52.1676 5.80197 52.0993 5.46953 51.963 5.12857C51.8265 4.78761 51.622 4.48074 51.3493 4.20797C51.0935 3.9352 50.7696 3.71358 50.3775 3.54309C49.9853 3.37261 49.5336 3.28737 49.0222 3.28737C48.5277 3.28737 48.0845 3.37261 47.6924 3.54309C47.3173 3.71358 46.9934 3.9352 46.7207 4.20797C46.465 4.48074 46.2689 4.78761 46.1325 5.12857C45.9961 5.46953 45.9279 5.80197 45.9279 6.12588C45.9279 6.46684 45.9961 6.80781 46.1325 7.14877C46.2689 7.47269 46.465 7.77103 46.7207 8.0438C46.9934 8.29952 47.3173 8.51259 47.6924 8.6831C48.0845 8.85361 48.5277 8.93882 49.0222 8.93882C49.5336 8.93882 49.9853 8.85361 50.3775 8.6831C50.7696 8.51259 51.0935 8.29952 51.3493 8.0438C51.622 7.77103 51.8265 7.47269 51.963 7.14877C52.0993 6.80781 52.1676 6.46684 52.1676 6.12588ZM55.6198 6.12588C55.6198 6.94419 55.4408 7.69431 55.0828 8.37624C54.7248 9.05819 54.2389 9.64635 53.6252 10.1407C53.0284 10.6351 52.3295 11.0273 51.5283 11.317C50.744 11.5898 49.9172 11.7262 49.0478 11.7262C48.1783 11.7262 47.3429 11.5898 46.5417 11.317C45.7574 11.0273 45.0585 10.6351 44.4448 10.1407C43.848 9.64635 43.3707 9.05819 43.0127 8.37624C42.6547 7.69431 42.4757 6.94419 42.4757 6.12588C42.4757 5.30757 42.6547 4.55746 43.0127 3.87553C43.3707 3.1936 43.848 2.60544 44.4448 2.11105C45.0585 1.5996 45.7574 1.2075 46.5417 0.934727C47.3429 0.644912 48.1783 0.5 49.0478 0.5C49.9172 0.5 50.744 0.636382 51.5283 0.909155C52.3295 1.18193 53.0284 1.57403 53.6252 2.08548C54.2389 2.57987 54.7248 3.17656 55.0828 3.87553C55.4408 4.55746 55.6198 5.30757 55.6198 6.12588ZM65.6361 13.1071C65.3121 13.1071 64.9541 12.9877 64.562 12.7491C64.17 12.4934 63.8289 12.2206 63.5392 11.9308C63.2664 11.658 63.0192 11.3511 62.7976 11.0102C62.593 10.6522 62.4907 10.3282 62.4907 10.0384V2.03433H74.0749V5.53772H78.1665V1.44617H81.6443V13.7975C81.6443 14.1385 81.4738 14.3516 81.1328 14.4368C80.7919 14.5221 80.3827 14.5647 79.9054 14.5647C79.3599 14.5647 78.9336 14.5136 78.6268 14.4113C78.3199 14.2919 78.1665 14.0873 78.1665 13.7975V8.47853H74.0749V11.1636C74.0749 11.7603 73.9215 12.2376 73.6146 12.5956C73.3248 12.9366 72.873 13.1071 72.2593 13.1071H65.6361ZM77.9107 18.554H66.0964V15.6643H80.0588C80.502 15.6643 80.8344 15.7751 81.0561 15.9968C81.2778 16.2013 81.3885 16.5764 81.3885 17.1219V24.4867C81.3885 24.8277 81.218 25.0322 80.8771 25.1005C80.5362 25.1687 80.127 25.2027 79.6496 25.2027C79.1041 25.2027 78.6779 25.1601 78.371 25.0749C78.0642 24.9897 77.9107 24.7936 77.9107 24.4867V18.554ZM70.6738 4.89842H65.8918V9.70599C65.8918 10.064 66.0708 10.243 66.4288 10.243H70.6738V4.89842ZM104.669 13.5418C104.669 13.8828 104.499 14.0959 104.157 14.1811C103.817 14.2663 103.408 14.309 102.93 14.309C102.385 14.309 101.958 14.2578 101.651 14.1556C101.344 14.0362 101.191 13.8316 101.191 13.5418V8.47853H96.9972C96.8785 9.17747 96.6392 9.81677 96.2812 10.3964C95.9231 10.9761 95.472 11.479 94.9258 11.9052C94.3979 12.3314 93.7842 12.6639 93.0846 12.9025C92.4033 13.1242 91.67 13.235 90.8858 13.235C90.0163 13.235 89.2066 13.09 88.4564 12.8002C87.7063 12.5104 87.05 12.1183 86.4874 11.6239C85.9419 11.1125 85.5071 10.5072 85.1832 9.80828C84.8763 9.10934 84.7229 8.35066 84.7229 7.53235C84.7229 6.71404 84.8763 5.9554 85.1832 5.25643C85.5071 4.54041 85.9419 3.92667 86.4874 3.41523C87.05 2.90379 87.7063 2.50315 88.4564 2.21334C89.2066 1.92352 90.0163 1.77861 90.8858 1.77861C91.5677 1.77861 92.2152 1.87238 92.8289 2.0599C93.4426 2.23039 93.997 2.48611 94.4911 2.82707C95.0025 3.15099 95.4464 3.54309 95.8209 4.00339C96.2136 4.46369 96.5113 4.97513 96.7159 5.53772H101.191V1.44617H104.669V13.5418ZM104.209 24.8447C103.97 24.6742 103.714 24.4527 103.441 24.1799C103.186 23.9241 102.922 23.6428 102.649 23.336C102.376 23.0291 102.112 22.7052 101.856 22.3642C101.618 22.0233 101.396 21.6823 101.191 21.3413C100.833 21.9891 100.433 22.5688 99.9891 23.0803C99.5635 23.6088 99.1115 24.1031 98.6338 24.5634C98.4128 24.7509 98.1826 24.9044 97.9434 25.0237C97.7223 25.1431 97.4831 25.2027 97.2273 25.2027C96.7844 25.2027 96.3497 24.9982 95.9231 24.589C95.4802 24.1799 95.0281 23.694 94.5678 23.1314C94.1249 22.5859 93.7075 21.9722 93.3148 21.2902C92.8718 22.0574 92.3686 22.7563 91.8064 23.3871C91.2438 24.0349 90.7239 24.5549 90.2465 24.947C90.0078 25.1345 89.7862 25.1687 89.5816 25.0493C89.3941 24.9299 89.1043 24.6742 88.7122 24.2821C88.3201 23.8901 88.0729 23.6002 87.9706 23.4127C87.8854 23.2252 87.9536 23.0291 88.1751 22.8245C88.6696 22.3472 89.1213 21.8784 89.5305 21.4181C89.9567 20.9578 90.3147 20.4804 90.6045 19.986C90.9114 19.4916 91.1501 18.9802 91.3205 18.4517C91.491 17.9062 91.5762 17.318 91.5762 16.6872V15.4853H95.0281V16.6105C95.0281 17.2413 95.0884 17.8039 95.2071 18.2983C95.3441 18.7926 95.514 19.2444 95.7186 19.6536C95.9405 20.0627 96.1789 20.4463 96.4346 20.8043C96.7077 21.1623 96.989 21.5203 97.2785 21.8784C97.5516 21.5203 97.8155 21.1538 98.0712 20.7788C98.3443 20.4207 98.5827 20.0372 98.7872 19.628C98.9918 19.2188 99.1544 18.7756 99.2731 18.2983C99.4101 17.8039 99.4777 17.2413 99.4777 16.6105V15.4853H102.93V16.6872C102.93 17.4203 103.024 18.0681 103.211 18.6307C103.416 19.1933 103.672 19.7132 103.978 20.1906C104.285 20.668 104.635 21.1112 105.027 21.5203C105.42 21.9466 105.811 22.3727 106.203 22.799C106.391 23.0035 106.433 23.1996 106.331 23.3871C106.246 23.5746 106.033 23.8559 105.692 24.231C105.3 24.6572 105.01 24.913 104.822 24.9982C104.635 25.0834 104.43 25.0322 104.209 24.8447ZM93.6984 7.53235C93.6984 7.1232 93.6217 6.74814 93.4682 6.40718C93.3321 6.04917 93.1358 5.75082 92.8801 5.51215C92.6417 5.25643 92.3522 5.06037 92.011 4.92399C91.67 4.77056 91.2949 4.69384 90.8858 4.69384C90.4937 4.69384 90.1272 4.77056 89.7862 4.92399C89.4453 5.06037 89.1469 5.25643 88.8912 5.51215C88.6525 5.75082 88.4564 6.04917 88.303 6.40718C88.1666 6.74814 88.0984 7.1232 88.0984 7.53235C88.0984 8.35066 88.3627 9.02404 88.8912 9.55256C89.4197 10.064 90.0846 10.3197 90.8858 10.3197C91.7041 10.3197 92.3777 10.064 92.9056 9.55256C93.4344 9.02404 93.6984 8.35066 93.6984 7.53235ZM126.927 22.8245C126.927 23.1143 126.773 23.3104 126.466 23.4127C126.16 23.515 125.717 23.5661 125.137 23.5661C124.591 23.5661 124.165 23.515 123.858 23.4127C123.551 23.3275 123.398 23.1399 123.398 22.8501V1.70189H126.927V22.8245ZM121.122 15.025C121.412 15.025 121.599 15.1614 121.684 15.4342C121.77 15.6899 121.812 16.0564 121.812 16.5338C121.812 17.0281 121.77 17.4032 121.684 17.6589C121.599 17.8976 121.412 18.017 121.122 18.017H112.044C111.703 18.017 111.328 17.8891 110.919 17.6334C110.509 17.3777 110.16 17.1049 109.87 16.8151C109.598 16.5253 109.35 16.2098 109.128 15.8689C108.907 15.5109 108.796 15.204 108.796 14.9483V3.46637H112.325V14.4368C112.325 14.8289 112.513 15.025 112.888 15.025H121.122Z" fill="#333333"/>
<path fill-rule="evenodd" clip-rule="evenodd" d="M17.2023 31.6615C7.11439 31.6615 -1.29781 39.9664 1.19099 49.7425C9.23735 81.349 37.8888 104.725 71.9999 104.725C106.111 104.725 134.762 81.349 142.809 49.7425C145.298 39.9664 136.885 31.6615 126.797 31.6615H17.2023ZM133.19 43.991C133.19 46.2608 131.351 48.1008 129.08 48.1008C126.811 48.1008 124.971 46.2608 124.971 43.991C124.971 41.7211 126.811 39.8811 129.08 39.8811C131.351 39.8811 133.19 41.7211 133.19 43.991ZM91.3061 84.3454C91.406 82.5315 92.6693 81.0068 94.389 80.42C106.423 76.3125 116.38 67.1047 121.218 54.9343C121.858 53.3237 123.509 52.3094 125.217 52.6078C127.104 52.9376 128.38 54.7405 127.905 56.5965C123.814 72.5898 111.28 84.5415 96.0083 88.4444C93.4556 89.0966 91.1613 86.9755 91.3061 84.3454Z" fill="#FF5439"/>
</svg>
